<svg xmlns="http://www.w3.org/2000/svg" width="8.976" height="7.699" viewBox="0 0 8.976 7.699">
  <g id="ElegantIcons_icon_heart_alt" data-name="ElegantIcons icon heart alt" transform="translate(0 -4.552)">
    <path id="パス_11" data-name="パス 11" d="M8.971,7.156a2.628,2.628,0,0,0-2.52-2.6,2.478,2.478,0,0,0-1.963,1.03,2.478,2.478,0,0,0-1.963-1.03A2.628,2.628,0,0,0,0,7.156H0c0,.008,0,.016,0,.025S0,7.193,0,7.2c0,.039.01.068.011.1.123,3.508,4.441,4.947,4.441,4.947S8.834,10.814,8.964,7.31c0-.039.012-.07.012-.111,0-.007,0-.013,0-.019s0-.016,0-.025ZM8.4,7.289c-.1,2.693-3.174,4.062-3.949,4.364C3.685,11.35.666,9.987.572,7.278A.809.809,0,0,0,.564,7.2l0-.031A2.06,2.06,0,0,1,2.524,5.113,1.916,1.916,0,0,1,4.04,5.92a.561.561,0,0,0,.9,0,1.916,1.916,0,0,1,1.516-.807A2.06,2.06,0,0,1,8.41,7.165a.305.305,0,0,0,0,.032C8.408,7.225,8.4,7.254,8.4,7.289Z"/>
  </g>
</svg>
