<svg id="Icons_icon-home" data-name="Icons/icon-home" xmlns="http://www.w3.org/2000/svg" width="23.224" height="23.228" viewBox="0 0 23.224 23.228">
  <path id="icon-home" d="M24.832,11.581,14.379,2.289a1.161,1.161,0,0,0-1.533,0L2.392,11.581a1.162,1.162,0,0,0,.767,2.033H4.32V24.067a1.161,1.161,0,0,0,1.161,1.161H21.742A1.161,1.161,0,0,0,22.9,24.067V13.613h1.161a1.162,1.162,0,0,0,.767-2.033ZM14.774,22.905H12.451V19.421a1.161,1.161,0,0,1,2.323,0Zm5.807,0H17.1V19.421a3.484,3.484,0,0,0-6.969,0v3.484H6.643V13.613H20.581ZM6.213,11.29l7.4-6.574,7.4,6.574Z" transform="translate(-2 -2)" fill="#cc9d76"/>
</svg>
