<svg id="Icons_icon-shopping-bag" data-name="Icons/icon-shopping-bag" xmlns="http://www.w3.org/2000/svg" width="18.584" height="23.23" viewBox="0 0 18.584 23.23">
  <path id="icon-shopping-bag" d="M21.422,7.807H17.938V6.646a4.646,4.646,0,0,0-9.292,0V7.807H5.161A1.161,1.161,0,0,0,4,8.969V21.745A3.484,3.484,0,0,0,7.484,25.23H19.1a3.484,3.484,0,0,0,3.484-3.484V8.969A1.161,1.161,0,0,0,21.422,7.807ZM10.969,6.646a2.323,2.323,0,0,1,4.646,0V7.807H10.969Zm9.292,15.1A1.161,1.161,0,0,1,19.1,22.907H7.484a1.161,1.161,0,0,1-1.161-1.161V10.13H8.646v1.161a1.161,1.161,0,1,0,2.323,0V10.13h4.646v1.161a1.161,1.161,0,1,0,2.323,0V10.13h2.323Z" transform="translate(-4 -2)"/>
</svg>
