<svg id="Symbols" xmlns="http://www.w3.org/2000/svg" width="23.23" height="23.23" viewBox="0 0 23.23 23.23">
  <g id="Icons_icon-categories" data-name="Icons/icon-categories">
    <path id="icon-categories" d="M11.292,14.776H3.161A1.161,1.161,0,0,0,2,15.938v8.13A1.161,1.161,0,0,0,3.161,25.23h8.13a1.161,1.161,0,0,0,1.161-1.161v-8.13A1.161,1.161,0,0,0,11.292,14.776Zm-1.161,8.13H4.323V17.1H10.13ZM24.068,2h-8.13a1.161,1.161,0,0,0-1.161,1.161v8.13a1.161,1.161,0,0,0,1.161,1.161h8.13a1.161,1.161,0,0,0,1.161-1.161V3.161A1.161,1.161,0,0,0,24.068,2Zm-1.161,8.13H17.1V4.323h5.807Zm1.161,4.646h-8.13a1.161,1.161,0,0,0-1.161,1.161v8.13a1.162,1.162,0,0,0,1.161,1.161h8.13a1.162,1.162,0,0,0,1.161-1.161v-8.13A1.162,1.162,0,0,0,24.068,14.776Zm-1.161,8.13H17.1V17.1h5.807ZM11.292,2H3.161A1.161,1.161,0,0,0,2,3.161v8.13a1.161,1.161,0,0,0,1.161,1.161h8.13a1.161,1.161,0,0,0,1.161-1.161V3.161A1.161,1.161,0,0,0,11.292,2ZM10.13,10.13H4.323V4.323H10.13Z" transform="translate(-2 -2)"/>
  </g>
</svg>
