<svg id="Icons_icon-settings" data-name="Icons/icon-settings" xmlns="http://www.w3.org/2000/svg" width="23.23" height="23.23" viewBox="0 0 23.23 23.23">
  <path id="icon-settings" d="M24.44,10.769l-2.2-.732L23.279,7.97a1.162,1.162,0,0,0-.221-1.324L20.584,4.172a1.161,1.161,0,0,0-1.336-.221L17.181,4.985l-.732-2.2A1.162,1.162,0,0,0,15.357,2H11.873a1.162,1.162,0,0,0-1.1.79l-.732,2.2L7.97,3.951a1.162,1.162,0,0,0-1.324.221L4.172,6.646a1.162,1.162,0,0,0-.221,1.336l1.034,2.067-2.2.732A1.162,1.162,0,0,0,2,11.873v3.484a1.162,1.162,0,0,0,.79,1.1l2.2.732L3.951,19.26a1.161,1.161,0,0,0,.221,1.324l2.474,2.474a1.162,1.162,0,0,0,1.336.221l2.067-1.034.732,2.2a1.161,1.161,0,0,0,1.1.79h3.484a1.161,1.161,0,0,0,1.1-.79l.732-2.2,2.067,1.034a1.161,1.161,0,0,0,1.312-.221l2.474-2.474a1.161,1.161,0,0,0,.221-1.336l-1.034-2.067,2.2-.732a1.161,1.161,0,0,0,.79-1.092V11.873A1.161,1.161,0,0,0,24.44,10.769Zm-1.533,3.752-1.394.465a2.323,2.323,0,0,0-1.347,3.275l.662,1.324L19.55,20.863l-1.289-.7a2.323,2.323,0,0,0-3.241,1.347l-.465,1.394H12.709l-.465-1.394a2.323,2.323,0,0,0-3.275-1.347l-1.324.662L6.367,19.55l.7-1.289a2.323,2.323,0,0,0-1.347-3.275l-1.394-.465V12.709l1.394-.465A2.323,2.323,0,0,0,7.064,8.969L6.4,7.68,7.68,6.4l1.289.662a2.323,2.323,0,0,0,3.275-1.347l.465-1.394h1.812l.465,1.394a2.323,2.323,0,0,0,3.275,1.347L19.585,6.4,20.863,7.68l-.7,1.289a2.323,2.323,0,0,0,1.347,3.241l1.394.465ZM13.615,8.969A4.646,4.646,0,1,0,16.9,10.33,4.646,4.646,0,0,0,13.615,8.969Zm0,6.969a2.323,2.323,0,1,1,2.323-2.323A2.323,2.323,0,0,1,13.615,15.938Z" transform="translate(-2 -2)"/>
</svg>
