<svg id="Icons_icon-bookmark" data-name="Icons/icon-bookmark" xmlns="http://www.w3.org/2000/svg" width="16.261" height="23.23" viewBox="0 0 16.261 23.23">
  <path id="icon-bookmark" d="M20.1,2H6.161A1.161,1.161,0,0,0,5,3.161V24.068a1.161,1.161,0,0,0,1.916.883l6.214-5.215,6.144,5.157a1.161,1.161,0,0,0,.825.337.976.976,0,0,0,.441-.093,1.161,1.161,0,0,0,.72-1.069V3.161A1.161,1.161,0,0,0,20.1,2ZM18.938,21.583l-5.064-4.251a1.162,1.162,0,0,0-1.487,0L7.323,21.583V4.323H18.938Z" transform="translate(-5 -2)"/>
</svg>
