<svg id="グループ_10" data-name="グループ 10" xmlns="http://www.w3.org/2000/svg" xmlns:xlink="http://www.w3.org/1999/xlink" width="25.749" height="25.749" viewBox="0 0 25.749 25.749">
  <defs>
    <clipPath id="clip-path">
      <rect id="長方形_4" data-name="長方形 4" width="25.749" height="25.749" fill="none"/>
    </clipPath>
  </defs>
  <g id="グループ_9" data-name="グループ 9" clip-path="url(#clip-path)">
    <path id="パス_5" data-name="パス 5" d="M19.944,25.749H5.8a5.8,5.8,0,0,1-5.8-5.8V5.8A5.8,5.8,0,0,1,5.8,0h14.14a5.8,5.8,0,0,1,5.8,5.8V19.944a5.8,5.8,0,0,1-5.8,5.8" fill="#009846"/>
    <path id="パス_6" data-name="パス 6" d="M114.04,113.048c0-3.841-3.851-6.967-8.585-6.967s-8.585,3.125-8.585,6.967c0,3.444,3.054,6.328,7.18,6.873.279.06.66.184.756.423a1.764,1.764,0,0,1,.028.776s-.1.606-.123.735c-.037.217-.173.849.744.463a27.728,27.728,0,0,0,6.745-4.984h0a6.2,6.2,0,0,0,1.84-4.286" transform="translate(-92.583 -101.386)" fill="#fff"/>
    <path id="パス_7" data-name="パス 7" d="M364.668,225.629h-2.412a.164.164,0,0,1-.164-.164v0h0v-3.74h0v0a.164.164,0,0,1,.164-.164h2.412a.164.164,0,0,1,.164.164v.609a.164.164,0,0,1-.164.164h-1.639v.632h1.639a.164.164,0,0,1,.164.164v.609a.164.164,0,0,1-.164.164h-1.639v.632h1.639a.164.164,0,0,1,.164.164v.609a.164.164,0,0,1-.164.164" transform="translate(-346.067 -211.75)" fill="#009846"/>
    <path id="パス_8" data-name="パス 8" d="M163.08,225.629a.164.164,0,0,0,.164-.164v-.609a.164.164,0,0,0-.164-.164h-1.639v-2.974a.164.164,0,0,0-.164-.164h-.609a.164.164,0,0,0-.164.164v3.744h0v0a.164.164,0,0,0,.164.164h2.412Z" transform="translate(-153.401 -211.75)" fill="#009846"/>
    <path id="パス_9" data-name="パス 9" d="M234.826,221.553h-.609a.164.164,0,0,0-.164.164v3.747a.164.164,0,0,0,.164.164h.609a.164.164,0,0,0,.164-.164v-3.747a.164.164,0,0,0-.164-.164" transform="translate(-223.695 -211.748)" fill="#009846"/>
    <path id="パス_10" data-name="パス 10" d="M271.84,221.553h-.609a.164.164,0,0,0-.164.164v2.225l-1.714-2.315-.013-.017h0l-.01-.01,0,0-.009-.008,0,0-.009-.006-.005,0-.009,0-.005,0-.01,0-.005,0-.01,0-.006,0-.01,0h-.636a.164.164,0,0,0-.164.164v3.747a.164.164,0,0,0,.164.164h.609a.164.164,0,0,0,.164-.164v-2.225l1.716,2.318a.166.166,0,0,0,.042.041h0l.01.006,0,0,.008,0,.008,0,.005,0,.011,0h0a.167.167,0,0,0,.043.006h.605a.164.164,0,0,0,.164-.164v-3.747a.164.164,0,0,0-.164-.164" transform="translate(-256.564 -211.748)" fill="#009846"/>
  </g>
</svg>
