<svg xmlns="http://www.w3.org/2000/svg" width="8.185" height="6.139" viewBox="0 0 8.185 6.139">
  <g id="ElegantIcons_icon_mail_alt" data-name="ElegantIcons icon mail alt" transform="translate(0 -8)">
    <path id="パス_12" data-name="パス 12" d="M7.673,8H.512A.512.512,0,0,0,0,8.512v5.116a.512.512,0,0,0,.512.512H7.673a.512.512,0,0,0,.512-.512V8.512A.512.512,0,0,0,7.673,8ZM2.906,11.595l1.188.807,1.181-.813,2.038,2.038H.873ZM.512,13.265v-3.3L2.475,11.3ZM5.7,11.294,7.673,9.938v3.328ZM7.673,8.512v.828l-.011-.015L4.091,11.783.512,9.349V8.512Z"/>
  </g>
</svg>
