<svg width="269" height="85" viewBox="0 0 269 85" fill="none" xmlns="http://www.w3.org/2000/svg">
<g clip-path="url(#clip0_265_1082)">
<path d="M41.3955 49.7952C41.3955 39.6062 47.7558 31.3145 59.2183 31.3145C70.6808 31.3145 75.7131 38.2008 75.7131 47.2655C75.7131 49.5844 75.3636 51.4114 75.3636 51.4114H49.9225C50.4117 57.3843 53.6967 61.1788 59.9871 61.1788C67.256 61.1788 68.8635 57.3843 68.8635 57.3843H75.0141V62.022C75.0141 62.022 71.5195 68.276 59.9172 68.276C47.616 68.276 41.3955 60.4761 41.3955 49.7952ZM67.4657 45.6493C67.4657 41.5737 64.8097 38.3414 59.2183 38.3414C53.6268 38.3414 51.1107 41.3629 50.2021 45.6493H67.4657Z" fill="#5ADCD4"/>
<path d="M83.4717 32.1577H91.2298L91.8589 37.4981C94.375 33.7036 98.5686 31.3145 103.881 31.3145C114.015 31.3145 119.956 39.5359 119.956 49.7249C119.956 59.914 113.875 68.276 103.881 68.276C98.5686 68.276 94.5148 65.9571 91.9288 62.2328V85H83.4717V32.1577ZM111.429 49.7249C111.429 43.6818 108.214 38.763 101.714 38.763C95.703 38.763 91.9288 43.6115 91.9288 49.7249C91.9288 55.8384 95.703 60.8275 101.714 60.8275C108.214 60.8275 111.429 55.8384 111.429 49.7249Z" fill="#5ADCD4"/>
<path d="M125.616 49.7952C125.616 39.6062 131.976 31.3145 143.439 31.3145C154.901 31.3145 159.934 38.2008 159.934 47.2655C159.934 49.5844 159.584 51.4114 159.584 51.4114H134.143C134.632 57.3843 137.917 61.1788 144.208 61.1788C151.477 61.1788 153.084 57.3843 153.084 57.3843H159.235V62.022C159.235 62.022 155.74 68.276 144.138 68.276C131.837 68.276 125.616 60.4761 125.616 49.7952ZM151.686 45.6493C151.686 41.5737 149.03 38.3414 143.439 38.3414C137.848 38.3414 135.331 41.3629 134.423 45.6493H151.686Z" fill="#5ADCD4"/>
<path d="M166.638 57.314C166.638 51.0601 171.041 46.6331 181.246 46.6331C185.3 46.6331 188.585 47.4763 188.585 47.4763V45.5791C188.585 40.871 186.558 38.4819 181.805 38.4819C176.493 38.4819 174.676 42.2764 174.676 42.2764H168.665V37.6387C168.665 37.6387 171.88 31.3145 182.015 31.3145C192.149 31.3145 197.112 36.2333 197.112 45.7899V67.4328H189.843L189.074 62.5842C187.327 65.2544 184.042 68.276 178.38 68.276C170.552 68.276 166.638 63.3572 166.638 57.314ZM188.591 54.7843V53.0979C188.591 53.0979 185.656 52.2546 181.532 52.2546C176.499 52.2546 175.032 54.5033 175.032 56.8924C175.032 60.1248 176.989 61.5302 180.483 61.5302C185.725 61.5302 188.591 57.7356 188.591 54.7843Z" fill="#5ADCD4"/>
<path d="M208.644 55.2761V39.2548H203.123V32.1576H208.854L209.343 23.3037H217.101V32.1576H230.94V39.2548H217.101V54.714C217.101 58.7896 218.429 61.1085 222.064 61.1085C225.698 61.1085 226.257 58.368 226.257 58.0166H232.128V62.7247C230.801 65.3246 227.865 68.2759 221.714 68.2759C213.187 68.2759 208.644 63.5679 208.644 55.2761Z" fill="#5ADCD4"/>
<path d="M238.838 61.741V57.1032H244.848C244.918 57.5248 247.295 61.5302 253.445 61.5302C258.058 61.5302 259.596 59.9842 259.596 57.6654C259.596 54.7843 256.73 54.0816 252.956 53.3087L248.902 52.5357C243.59 51.6222 239.467 48.7412 239.467 42.3467C239.467 36.3036 244.219 31.3145 252.746 31.3145C260.505 31.3145 264.209 34.336 265.677 37.4279V42.0656H259.736C259.666 41.7143 257.988 37.99 252.677 37.99C248.762 37.99 247.295 39.6765 247.295 41.9251C247.295 44.1737 249.392 45.3683 252.537 46.0007L256.591 46.7737C262.322 47.8277 267.354 50.1466 267.354 56.8221C267.354 63.4977 262.531 68.276 253.445 68.276C243.031 68.276 239.257 62.7247 238.838 61.741Z" fill="#5ADCD4"/>
<path d="M27.1111 42.9663H17.3896L29.7671 67.4327H40.0604L27.1111 42.9663ZM0.113281 47.0802V67.4327H9.56793V47.0802H0.113281Z" fill="#5ADCD4"/>
<path d="M34.0056 21.3938V32.1322C34.0056 35.4668 31.3179 38.1626 28.0075 38.1626H8.52637" stroke="#5ADCD4" stroke-width="7" stroke-miterlimit="10"/>
<path d="M0.171387 38.4563L9.53708 29.0211V47.1314L0.171387 38.4563Z" fill="#5ADCD4"/>
<path d="M4.76538 29.0211V17.5034C4.76538 14.1688 7.45309 11.473 10.7635 11.473C103.658 20.9785 187.79 21.9367 260.193 11.473" stroke="#5ADCD4" stroke-width="7" stroke-miterlimit="10"/>
<path d="M269 9.93349L258.104 25.0413L254.158 0L269 9.93349Z" fill="#5ADCD4"/>
</g>
<defs>
<clipPath id="clip0_265_1082">
<rect width="269" height="85" fill="white"/>
</clipPath>
</defs>
</svg>