<svg width="51" height="46" viewBox="0 0 51 46" fill="none" xmlns="http://www.w3.org/2000/svg">
<g clip-path="url(#clip0_376_327)">
<path d="M11.6297 12.3252H47.6458C49.3713 12.3252 50.7623 13.725 50.7623 15.4417V45.7794H8.51318V15.4417C8.51318 13.7162 9.91298 12.3252 11.6297 12.3252Z" fill="#3DB4AD"/>
<path d="M41.4568 0H15.8644C14.1286 0 12.7214 1.40714 12.7214 3.14293V33.3133C12.7214 35.0491 14.1286 36.4562 15.8644 36.4562H41.4568C43.1926 36.4562 44.5997 35.0491 44.5997 33.3133V3.14293C44.5997 1.40714 43.1926 0 41.4568 0Z" fill="#555555"/>
<path d="M39.7048 1.76074H17.8187C16.0829 1.76074 14.6758 3.16788 14.6758 4.90367V33.8327C14.6758 35.5685 16.0829 36.9757 17.8187 36.9757H39.7048C41.4406 36.9757 42.8477 35.5685 42.8477 33.8327V4.90367C42.8477 3.16788 41.4406 1.76074 39.7048 1.76074Z" fill="#555555"/>
<path d="M19.7378 7.48315H37.3452" stroke="white" stroke-width="1.76075" stroke-miterlimit="10"/>
<path d="M19.7378 12.3252H37.3452" stroke="white" stroke-width="1.76075" stroke-miterlimit="10"/>
<path d="M31.975 11.4448L29.4131 15.0191H1.95428C0.660135 15.0191 -0.281864 16.2605 0.0702852 17.5106L8.08168 45.7794H50.9999L42.8916 17.1672L42.2842 15.0191L41.2717 11.4448H31.975Z" fill="#5ADCD4"/>
</g>
<defs>
<clipPath id="clip0_376_327">
<rect width="51" height="45.7794" fill="white"/>
</clipPath>
</defs>
</svg>
