<svg width="43" height="50" viewBox="0 0 43 50" fill="none" xmlns="http://www.w3.org/2000/svg">
<path d="M31.525 0H4.30833C1.93333 0 0 1.93333 0 4.30833V45.6833C0 48.0667 1.93333 49.9917 4.30833 49.9917H31.5167C33.9 49.9917 35.825 48.0583 35.825 45.6833V4.30833C35.825 1.925 33.8917 0 31.5167 0H31.525ZM14.1667 2.5H21.6667C22.3583 2.5 22.9167 3.05833 22.9167 3.75C22.9167 4.44167 22.3583 5 21.6667 5H14.1667C13.475 5 12.9167 4.44167 12.9167 3.75C12.9167 3.05833 13.475 2.5 14.1667 2.5ZM32.6 41.35C32.6 43.1333 31.0167 44.5833 29.0667 44.5833H6.75833C4.80833 44.5833 3.225 43.1333 3.225 41.35V10.3167C3.225 8.53333 4.80833 7.08333 6.75833 7.08333H29.0667C31.0167 7.08333 32.6 8.53333 32.6 10.3167V41.35Z" fill="#5ADCD4"/>
<path d="M37.6612 12H18.3388C16.4896 12 15 13.1503 15 14.5636V28.4924C15 29.9123 15.7277 31.056 17.5683 31.056V35L23.4155 31.056H37.6612C39.5104 31.056 41 29.9057 41 28.4924V14.5636C41 13.1438 39.5018 12 37.6612 12Z" fill="#555555"/>
</svg>
