<svg width="45" height="53" viewBox="0 0 45 53" fill="none" xmlns="http://www.w3.org/2000/svg">
<g clip-path="url(#clip0_375_316)">
<path d="M40.0398 0H4.67891C2.09482 0 0 2.09482 0 4.67891V48.3211C0 50.9052 2.09482 53 4.67891 53H40.0398C42.6239 53 44.7188 50.9052 44.7188 48.3211V4.67891C44.7188 2.09482 42.6239 0 40.0398 0Z" fill="#5ADCD4"/>
<path d="M13.1589 8.69531H7.54422C7.03655 8.69531 6.625 9.10686 6.625 9.61453V15.2292C6.625 15.7369 7.03655 16.1484 7.54422 16.1484H13.1589C13.6666 16.1484 14.0781 15.7369 14.0781 15.2292V9.61453C14.0781 9.10686 13.6666 8.69531 13.1589 8.69531Z" fill="#555555"/>
<path d="M16.5625 12.0078H38.0938" stroke="white" stroke-width="1.65625" stroke-miterlimit="10"/>
<path d="M13.1589 22.7734H7.54422C7.03655 22.7734 6.625 23.185 6.625 23.6927V29.3073C6.625 29.815 7.03655 30.2266 7.54422 30.2266H13.1589C13.6666 30.2266 14.0781 29.815 14.0781 29.3073V23.6927C14.0781 23.185 13.6666 22.7734 13.1589 22.7734Z" fill="#555555"/>
<path d="M16.5625 26.0859H38.0938" stroke="white" stroke-width="1.65625" stroke-miterlimit="10"/>
<path d="M13.1589 36.8516H7.54422C7.03655 36.8516 6.625 37.2631 6.625 37.7708V43.3855C6.625 43.8931 7.03655 44.3047 7.54422 44.3047H13.1589C13.6666 44.3047 14.0781 43.8931 14.0781 43.3855V37.7708C14.0781 37.2631 13.6666 36.8516 13.1589 36.8516Z" fill="#555555"/>
<path d="M16.5625 40.1641H38.0938" stroke="white" stroke-width="1.65625" stroke-miterlimit="10"/>
</g>
<defs>
<clipPath id="clip0_375_316">
<rect width="44.7188" height="53" fill="white"/>
</clipPath>
</defs>
</svg>
