<svg width="55" height="44" viewBox="0 0 55 44" fill="none" xmlns="http://www.w3.org/2000/svg">
<g clip-path="url(#clip0_363_267)">
<path d="M16.5753 18.0822C21.5685 18.0822 25.6164 14.0344 25.6164 9.0411C25.6164 4.04784 21.5685 0 16.5753 0C11.582 0 7.53418 4.04784 7.53418 9.0411C7.53418 14.0344 11.582 18.0822 16.5753 18.0822Z" fill="#555555"/>
<path d="M16.5753 20.3424C7.42123 20.3424 0 30.7999 0 43.6986H33.1507C33.1507 30.7999 25.7295 20.3424 16.5753 20.3424Z" fill="#5ADCD4"/>
<path d="M38.4246 18.0822C43.4179 18.0822 47.4657 14.0344 47.4657 9.0411C47.4657 4.04784 43.4179 0 38.4246 0C33.4314 0 29.3835 4.04784 29.3835 9.0411C29.3835 14.0344 33.4314 18.0822 38.4246 18.0822Z" fill="#555555"/>
<g style="mix-blend-mode:multiply">
<path d="M38.4247 20.3424C29.2706 20.3424 21.8494 30.7999 21.8494 43.6986H55C55 30.7999 47.5788 20.3424 38.4247 20.3424Z" fill="#5ADCD4"/>
</g>
</g>
<defs>
<clipPath id="clip0_363_267">
<rect width="55" height="43.6986" fill="white"/>
</clipPath>
</defs>
</svg>