<svg width="50" height="44" viewBox="0 0 50 44" fill="none" xmlns="http://www.w3.org/2000/svg">
<g clip-path="url(#clip0_375_310)">
<path d="M21.5219 0.126221C9.63291 0.126221 0 9.76656 0 21.6481C0 33.5297 9.63291 43.1701 21.5219 43.1701C33.4109 43.1701 43.0438 33.5371 43.0438 21.6481C43.0438 9.75913 33.4109 0.126221 21.5219 0.126221ZM21.5219 36.4908C13.3213 36.4908 6.67922 29.8487 6.67922 21.6481C6.67922 13.4475 13.3213 6.80544 21.5219 6.80544C29.7225 6.80544 36.3646 13.4475 36.3646 21.6481C36.3646 29.8487 29.7225 36.4908 21.5219 36.4908Z" fill="#5ADCD4"/>
<path d="M21.522 11.2582C15.7853 11.2582 11.1321 15.9114 11.1321 21.6481C11.1321 27.3848 15.7853 32.038 21.522 32.038C27.2587 32.038 31.9119 27.3848 31.9119 21.6481C31.9119 15.9114 27.2587 11.2582 21.522 11.2582ZM21.522 26.1009C19.0655 26.1009 17.0692 24.1045 17.0692 21.6481C17.0692 19.1916 19.0655 17.1953 21.522 17.1953C23.9784 17.1953 25.9748 19.1916 25.9748 21.6481C25.9748 24.1045 23.9784 26.1009 21.522 26.1009Z" fill="#5ADCD4"/>
<path d="M43.7487 5.52149L43.7042 0L34.9544 6.50853C34.5982 6.76827 34.3904 7.19129 34.3978 7.62915L34.4201 10.145L21.6405 19.6517C20.8167 20.2603 20.6461 21.4254 21.262 22.2492C21.7073 22.8503 22.4494 23.1027 23.1396 22.9542C23.392 22.9023 23.6369 22.791 23.8595 22.6277L36.6391 13.1209L39.0436 13.8631C39.4666 13.9967 39.9267 13.915 40.2755 13.6479L49.0253 7.13934L43.7487 5.51406V5.52149Z" fill="#555555"/>
</g>
<defs>
<clipPath id="clip0_375_310">
<rect width="49.018" height="43.17" fill="white"/>
</clipPath>
</defs>
</svg>
