<svg width="44" height="49" viewBox="0 0 44 49" fill="none" xmlns="http://www.w3.org/2000/svg">
<g clip-path="url(#clip0_365_287)">
<path d="M29.3333 32.0834L39.4166 44" stroke="#555555" stroke-width="9.16667" stroke-linecap="round" stroke-linejoin="round"/>
<path d="M18.7917 0C8.415 0 0 8.415 0 18.7917C0 29.1683 8.415 37.5833 18.7917 37.5833C29.1683 37.5833 37.5833 29.1683 37.5833 18.7917C37.5833 8.415 29.1683 0 18.7917 0ZM18.7917 29.3333C12.9708 29.3333 8.25 24.6125 8.25 18.7917C8.25 12.9708 12.9708 8.25 18.7917 8.25C24.6125 8.25 29.3333 12.9708 29.3333 18.7917C29.3333 24.6125 24.6125 29.3333 18.7917 29.3333Z" fill="#5ADCD4"/>
</g>
<defs>
<clipPath id="clip0_365_287">
<rect width="44" height="48.5833" fill="white"/>
</clipPath>
</defs>
</svg>
