<svg width="504" height="284" viewBox="0 0 504 284" fill="none" xmlns="http://www.w3.org/2000/svg">
<path d="M500.396 188.979L240.42 63.0146L298.178 43.4748C305.526 42.2447 303.595 15.9532 303.595 12.6417L84.8342 26.6529C79.8452 26.0807 75.3979 29.8356 75.1199 34.8707L0.627067 111.077C0.270711 113.38 -0.976538 145.465 8.93018 140.687L78.9686 117.629L346.265 281.085C351.467 284.268 357.632 284.833 362.971 282.63L496.847 227.215C503.033 224.654 506.518 192.527 500.41 188.979H500.396Z" fill="#3FB5BD"/>
<mask id="mask0_500_859" style="mask-type:luminance" maskUnits="userSpaceOnUse" x="0" y="0" width="501" height="257">
<path d="M496.384 184.094L240.277 35.4142L302.511 14.3653C304.143 13.8146 303.894 11.4258 302.183 11.2255L103.008 0.225451C80.9785 -1.36949 74.5213 8.00704 69.7889 14.1007L0.627129 111.077C0.477459 113.709 3.02897 115.662 5.52347 114.818L78.8047 90.0284L345.609 253.184C350.812 256.367 356.977 256.932 362.315 254.729L496.191 199.314C502.378 196.753 502.499 187.634 496.391 184.087L496.384 184.094Z" fill="white"/>
</mask>
<g mask="url(#mask0_500_859)">
<mask id="mask1_500_859" style="mask-type:luminance" maskUnits="userSpaceOnUse" x="-3" y="-4" width="508" height="264">
<path d="M504.466 -3.52942H-2.9436V259.628H504.466V-3.52942Z" fill="white"/>
</mask>
<g mask="url(#mask1_500_859)">
<rect x="-3.00757" y="-3.52942" width="507.509" height="263.401" fill="#54D2D2"/>
</g>
</g>
</svg>