<svg width="431" height="86" viewBox="0 0 431 86" fill="none" xmlns="http://www.w3.org/2000/svg">
<g clip-path="url(#clip0_0_1)">
<path d="M200.421 50.0685C200.421 39.8236 206.849 31.4863 218.434 31.4863C230.02 31.4863 235.106 38.4105 235.106 47.525C235.106 49.8566 234.753 51.6936 234.753 51.6936H209.039C209.533 57.6993 212.854 61.5146 219.211 61.5146C226.558 61.5146 228.183 57.6993 228.183 57.6993H234.399V62.3625C234.399 62.3625 230.867 68.6507 219.141 68.6507C206.708 68.6507 200.421 60.8081 200.421 50.0685ZM226.77 45.8999C226.77 41.8019 224.086 38.5518 218.434 38.5518C212.783 38.5518 210.24 41.59 209.322 45.8999H226.77Z" fill="white"/>
<path d="M242.947 32.3342H250.788L251.424 37.7039C253.967 33.8886 258.206 31.4863 263.574 31.4863C273.818 31.4863 279.822 39.7529 279.822 49.9979C279.822 60.2428 273.676 68.6507 263.574 68.6507C258.206 68.6507 254.108 66.3191 251.495 62.5744V85.4666H242.947V32.3342ZM271.204 49.9979C271.204 43.9216 267.954 38.9757 261.385 38.9757C255.309 38.9757 251.495 43.8509 251.495 49.9979C251.495 56.1448 255.309 61.1613 261.385 61.1613C267.954 61.1613 271.204 56.1448 271.204 49.9979Z" fill="white"/>
<path d="M285.544 50.0685C285.544 39.8236 291.973 31.4863 303.558 31.4863C315.143 31.4863 320.229 38.4105 320.229 47.525C320.229 49.8566 319.876 51.6936 319.876 51.6936H294.162C294.657 57.6993 297.977 61.5146 304.335 61.5146C311.682 61.5146 313.306 57.6993 313.306 57.6993H319.523V62.3625C319.523 62.3625 315.991 68.6507 304.264 68.6507C291.831 68.6507 285.544 60.8081 285.544 50.0685ZM311.894 45.8999C311.894 41.8019 309.209 38.5518 303.558 38.5518C297.907 38.5518 295.363 41.59 294.445 45.8999H311.894Z" fill="white"/>
<path d="M327.005 57.6286C327.005 51.3403 331.455 46.8891 341.769 46.8891C345.866 46.8891 349.186 47.7369 349.186 47.7369V45.8292C349.186 41.0954 347.138 38.6931 342.334 38.6931C336.965 38.6931 335.128 42.5085 335.128 42.5085H329.053V37.8453C329.053 37.8453 332.303 31.4863 342.546 31.4863C352.789 31.4863 357.804 36.4322 357.804 46.0412V67.8029H350.458L349.681 62.9277C347.915 65.6126 344.594 68.6507 338.872 68.6507C330.961 68.6507 327.005 63.7049 327.005 57.6286ZM349.193 55.085V53.3893C349.193 53.3893 346.226 52.5415 342.058 52.5415C336.972 52.5415 335.488 54.8024 335.488 57.2047C335.488 60.4548 337.466 61.8679 340.998 61.8679C346.296 61.8679 349.193 58.0525 349.193 55.085Z" fill="white"/>
<path d="M369.46 55.5796V39.4703H363.88V32.3341H369.672L370.167 23.4316H378.008V32.3341H391.995V39.4703H378.008V55.0143C378.008 59.1123 379.35 61.4439 383.024 61.4439C386.697 61.4439 387.262 58.6884 387.262 58.3351H393.196V63.069C391.854 65.6832 388.887 68.6507 382.67 68.6507C374.052 68.6507 369.46 63.9168 369.46 55.5796Z" fill="white"/>
<path d="M399.978 62.0799V57.4166H406.053C406.123 57.8406 408.525 61.8679 414.742 61.8679C419.404 61.8679 420.958 60.3135 420.958 57.9819C420.958 55.085 418.062 54.3785 414.247 53.6013L410.15 52.8241C404.781 51.9056 400.613 49.0087 400.613 42.5791C400.613 36.5028 405.417 31.4863 414.035 31.4863C421.877 31.4863 425.621 34.5245 427.104 37.6333V42.2965H421.099C421.029 41.9432 419.333 38.1985 413.965 38.1985C410.009 38.1985 408.525 39.8942 408.525 42.1552C408.525 44.4162 410.644 45.6173 413.823 46.2532L417.921 47.0304C423.713 48.0902 428.799 50.4218 428.799 57.134C428.799 63.8462 423.925 68.6507 414.742 68.6507C404.216 68.6507 400.401 63.069 399.978 62.0799Z" fill="white"/>
<path d="M185.984 43.2024H176.158L188.668 67.8031H199.072L185.984 43.2024ZM158.697 47.3389V67.8031H168.253V47.3389H158.697Z" fill="white"/>
<path d="M192.952 21.511V32.3083C192.952 35.6612 190.235 38.3718 186.89 38.3718H167.2" stroke="white" stroke-width="8.96255" stroke-miterlimit="10"/>
<path d="M158.755 38.6672L168.221 29.1802V47.3898L158.755 38.6672Z" fill="white"/>
<path d="M163.398 29.1803V17.5994C163.398 14.2465 166.114 11.5359 169.46 11.5359C263.35 21.0936 348.383 22.057 421.562 11.5359" stroke="white" stroke-width="8.96255" stroke-miterlimit="10"/>
<path d="M430.462 9.98802L419.449 25.1788L415.461 0L430.462 9.98802Z" fill="white"/>
</g>
<path d="M7.992 47.224C6.408 47.224 4.824 46.6 3.672 45.496L5.032 43.864C5.88 44.648 7 45.176 8.04 45.176C9.272 45.176 9.928 44.648 9.928 43.816C9.928 42.936 9.208 42.664 8.152 42.216L6.568 41.544C5.368 41.048 4.168 40.088 4.168 38.36C4.168 36.424 5.864 34.936 8.264 34.936C9.64 34.936 11.016 35.48 11.976 36.456L10.776 37.944C10.024 37.32 9.24 36.968 8.264 36.968C7.224 36.968 6.568 37.432 6.568 38.216C6.568 39.064 7.4 39.368 8.408 39.768L9.96 40.424C11.4 41.016 12.344 41.928 12.344 43.64C12.344 45.576 10.728 47.224 7.992 47.224ZM14.4404 47V35.144H16.8564L20.2964 41.464L21.4804 44.024H21.5604C21.4484 42.792 21.2564 41.224 21.2564 39.88V35.144H23.4964V47H21.0964L17.6724 40.664L16.4724 38.12H16.3924C16.5044 39.4 16.6804 40.888 16.6804 42.248V47H14.4404ZM29.9608 47.224C28.3768 47.224 26.7928 46.6 25.6408 45.496L27.0008 43.864C27.8488 44.648 28.9688 45.176 30.0088 45.176C31.2408 45.176 31.8968 44.648 31.8968 43.816C31.8968 42.936 31.1768 42.664 30.1208 42.216L28.5368 41.544C27.3368 41.048 26.1368 40.088 26.1368 38.36C26.1368 36.424 27.8328 34.936 30.2328 34.936C31.6088 34.936 32.9848 35.48 33.9448 36.456L32.7448 37.944C31.9928 37.32 31.2088 36.968 30.2328 36.968C29.1927 36.968 28.5368 37.432 28.5368 38.216C28.5368 39.064 29.3688 39.368 30.3768 39.768L31.9288 40.424C33.3688 41.016 34.3128 41.928 34.3128 43.64C34.3128 45.576 32.6968 47.224 29.9608 47.224ZM48.3451 39.112V38.136H45.4811V39.112H48.3451ZM48.3451 41.432V40.44H45.4811V41.432H48.3451ZM48.3451 43.752V42.776H45.4811V43.752H48.3451ZM43.9291 36.696H45.8491C45.8971 36.36 45.9291 36.024 45.9611 35.688H43.6091V34.088H50.2171V35.688H47.8491C47.7531 36.04 47.6571 36.376 47.5611 36.696H49.9611V45.176H43.9291V36.696ZM43.0331 34.088V35.656H35.8331V34.088H43.0331ZM39.5611 45.704V46.328H40.5211V45.704H39.5611ZM39.5131 40.008L40.1051 40.152C39.9931 40.504 39.8651 40.872 39.7211 41.224H40.6011C40.7451 40.824 40.8891 40.376 40.9851 40.008H39.5131ZM37.8011 40.008V40.6C37.8011 41.064 37.8011 41.592 37.7691 42.136C38.1691 41.496 38.5211 40.776 38.7451 40.008H37.8011ZM41.3371 37.768H37.8011V38.712H41.3371V37.768ZM40.5211 43.016V42.392H39.5611V43.016H40.5211ZM40.5211 44.664V44.056H39.5611V44.664H40.5211ZM43.3691 46.328V47.016C44.1211 46.536 44.8891 45.864 45.3051 45.32L46.8091 46.216C46.1051 47.032 44.9851 47.928 44.0411 48.424C43.8171 48.184 43.4651 47.848 43.1451 47.56H39.5611V48.2H38.2331V43.816L38.2011 43.848C38.0891 43.72 37.8971 43.528 37.7051 43.352C37.5771 45.048 37.2731 46.872 36.6331 48.216C36.3611 47.912 35.6571 47.416 35.2891 47.24C36.1531 45.304 36.2171 42.568 36.2171 40.6V36.472H43.0171V40.008H41.4171L42.4251 40.28L41.9451 41.224H43.1611V42.392H41.7211V43.016H43.0971V44.056H41.7211V44.664H43.0971V45.704H41.7211V46.328H43.3691ZM47.2251 46.232L48.5691 45.384C49.2571 45.976 50.1691 46.856 50.6171 47.448L49.1931 48.408C48.7771 47.8 47.9131 46.888 47.2251 46.232ZM56.4091 43.4H61.6091C60.6331 43.112 59.7211 42.744 58.8731 42.328C58.1051 42.728 57.2731 43.096 56.4091 43.4ZM56.3131 46.328H61.6411V44.968H56.3131V46.328ZM57.0811 38.936L57.0011 39C57.5291 39.48 58.1531 39.928 58.8731 40.312C59.5451 39.896 60.1531 39.432 60.6331 38.936H57.0811ZM62.2491 37.432L63.5291 38.2C62.8411 39.352 61.8971 40.312 60.7771 41.144C62.4411 41.736 64.3771 42.136 66.4411 42.344C66.0411 42.792 65.4971 43.64 65.2411 44.184C64.6811 44.104 64.1371 44.008 63.6091 43.912V48.36H61.6411V47.896H56.3131V48.392H54.4571V44.024C53.7531 44.216 53.0491 44.376 52.3291 44.52C52.1691 44.008 51.7691 43.224 51.4491 42.824C53.4011 42.52 55.3691 41.992 57.0651 41.24C56.5531 40.872 56.0731 40.472 55.6251 40.04C55.0331 40.424 54.3931 40.776 53.6731 41.112C53.4171 40.664 52.8251 39.992 52.4091 39.704C54.6331 38.856 56.1051 37.672 56.9051 36.488H53.9611V38.264H52.0891V34.76H57.9291V33.464H59.8811V34.76H65.8171V38.264H63.8651V36.488H57.1771L58.9531 36.84C58.7931 37.064 58.6171 37.288 58.4411 37.512H61.9291L62.2491 37.432ZM78.7451 45.672H72.4091V46.568H78.7451V45.672ZM77.5291 41.352H72.4091V42.184H77.5291V41.352ZM72.4091 43.544V44.28H80.6331V48.408H78.7451V47.976H72.4091V48.408H70.5851V39.976H79.4171V43.544H72.4091ZM82.3131 34.568V36.056H79.6731C79.9451 36.44 80.2011 36.824 80.3451 37.128L78.5851 37.624C78.4091 37.208 78.0091 36.584 77.6251 36.056H76.6971C76.4091 36.424 76.1051 36.744 75.8171 37.032V37.896H81.9451V41.064H80.0891V39.32H69.8971V41.064H68.1051V37.896H73.9931V36.776H74.6971C74.4091 36.616 74.1051 36.472 73.8971 36.376C74.0251 36.28 74.1691 36.168 74.2971 36.056H72.4251C72.6491 36.44 72.8411 36.824 72.9531 37.112L71.2411 37.592C71.1131 37.192 70.8251 36.584 70.5051 36.056H70.2491C69.8331 36.648 69.3851 37.176 68.9691 37.592C68.6011 37.288 67.8491 36.776 67.4171 36.568C68.3771 35.768 69.2891 34.536 69.7691 33.32L71.5451 33.8C71.4331 34.056 71.3051 34.312 71.1771 34.568H74.7291V35.64C75.3691 34.984 75.9131 34.152 76.2491 33.32L78.0571 33.752C77.9451 34.024 77.8171 34.296 77.6731 34.568H82.3131ZM88.6971 43.4L89.0171 45.192C87.2571 45.816 85.3371 46.424 83.8011 46.92L83.3691 44.984C83.9291 44.84 84.5851 44.664 85.3211 44.456V40.696H83.7051V38.952H85.3211V36.136H83.5611V34.36H88.8411V36.136H87.1291V38.952H88.5691V40.696H87.1291V43.896C87.6571 43.736 88.1851 43.576 88.6971 43.4ZM91.1611 38.568V39.944H92.8091V38.568H91.1611ZM91.1611 35.736V37.08H92.8091V35.736H91.1611ZM95.9931 37.08V35.736H94.4091V37.08H95.9931ZM95.9931 39.944V38.568H94.4091V39.944H95.9931ZM94.5851 46.168H98.5211V47.896H88.2331V46.168H92.6491V44.648H89.3371V42.936H92.6491V41.56H89.4491V34.12H97.8011V41.56H94.5851V42.936H97.9771V44.648H94.5851V46.168ZM106.521 34.536C106.921 35.32 107.897 37.784 108.201 38.824L106.185 39.528C105.881 38.504 105.001 36.184 104.521 35.192L106.521 34.536ZM113.833 35.816C113.657 36.216 113.513 36.696 113.417 37.048C112.969 38.792 112.057 41.336 110.729 43.08C109.049 45.288 106.729 46.904 104.441 47.768L102.649 45.976C104.841 45.352 107.337 43.912 108.969 41.848C110.169 40.328 111.161 37.576 111.433 35.128L113.833 35.816ZM102.073 35.528C102.553 36.536 103.561 38.92 103.929 40.008L101.865 40.76C101.545 39.72 100.489 37.096 100.025 36.232L102.073 35.528ZM116.425 39.592C117.001 39.64 118.169 39.688 119.001 39.688H127.593C128.345 39.688 129.049 39.624 129.465 39.592V42.104C129.081 42.088 128.265 42.024 127.593 42.024H119.001C118.089 42.024 117.017 42.056 116.425 42.104V39.592ZM139.001 46.648C139.065 46.344 139.129 45.896 139.129 45.464V36.136C139.129 35.416 139.017 34.808 139.001 34.76H141.385C141.369 34.808 141.273 35.432 141.273 36.152V44.52C142.569 43.96 144.153 42.696 145.225 41.144L146.457 42.904C145.129 44.632 142.825 46.36 141.033 47.272C140.681 47.464 140.489 47.624 140.345 47.752L139.001 46.648ZM131.593 46.408C133.001 45.416 133.865 43.944 134.313 42.584C134.761 41.208 134.777 38.184 134.777 36.248C134.777 35.608 134.729 35.176 134.633 34.776H136.985C136.969 34.856 136.873 35.56 136.873 36.232C136.873 38.12 136.825 41.496 136.393 43.112C135.913 44.92 134.905 46.488 133.545 47.704L131.593 46.408Z" fill="white"/>
<line y1="-1" x2="150.172" y2="-1" transform="matrix(0.99803 -0.062731 0.0436555 0.999047 0.123291 65.7104)" stroke="white" stroke-width="2"/>
<line y1="-1" x2="150.172" y2="-1" transform="matrix(-0.99803 -0.062731 -0.0436555 0.999047 150 29.7104)" stroke="white" stroke-width="2"/>
<defs>
<clipPath id="clip0_0_1">
<rect width="273" height="86" fill="white" transform="translate(158)"/>
</clipPath>
</defs>
</svg>
