<svg width="504" height="285" viewBox="0 0 504 285" fill="none" xmlns="http://www.w3.org/2000/svg">
<path d="M500.34 189.447L240.363 63.4827L298.121 43.9429C305.47 42.7127 303.538 16.4213 303.538 13.1098L84.7778 27.121C79.7888 26.5488 75.3415 30.3037 75.0635 35.3388L0.570671 111.545C0.214314 113.848 -1.03293 145.933 8.87379 141.156L78.9122 118.097L346.208 281.553C351.411 284.736 357.576 285.301 362.914 283.098L496.79 227.683C502.977 225.122 506.462 192.995 500.354 189.447H500.34Z" fill="#3FB5BD"/>
<mask id="mask0_489_9889" style="mask-type:luminance" maskUnits="userSpaceOnUse" x="0" y="0" width="501" height="257">
<path d="M496.327 184.562L240.221 35.8824L302.455 14.8335C304.087 14.2828 303.838 11.894 302.127 11.6937L102.952 0.693629C80.9221 -0.90131 74.4649 8.47522 69.7325 14.5689L0.570733 111.545C0.421063 114.178 2.97258 116.13 5.46708 115.286L78.7483 90.4966L345.553 253.652C350.755 256.835 356.92 257.4 362.259 255.197L496.135 199.782C502.321 197.222 502.442 188.103 496.334 184.555L496.327 184.562Z" fill="white"/>
</mask>
<g mask="url(#mask0_489_9889)">
<mask id="mask1_489_9889" style="mask-type:luminance" maskUnits="userSpaceOnUse" x="-3" y="-4" width="508" height="265">
<path d="M504.409 -3.06132H-3V260.096H504.409V-3.06132Z" fill="white"/>
</mask>
<g mask="url(#mask1_489_9889)">
<rect x="-3.06396" y="-3.06132" width="507.509" height="263.401" fill="#54D2D2"/>
</g>
</g>
</svg>
