<svg width="64" height="65" viewBox="0 0 64 65" fill="none" xmlns="http://www.w3.org/2000/svg">
<path fill-rule="evenodd" clip-rule="evenodd" d="M63.9998 0.0913086H10C4.47715 0.0913086 0 4.56847 0 10.0913V64.0911L63.9998 0.0913086Z" fill="#5ADCD4"/>
<path d="M21.2487 29.9673C19.1132 32.1028 15.8322 31.6502 12.226 28.044C8.60562 24.4236 8.25206 21.2416 10.3875 19.1062C12.523 16.9707 15.705 17.3525 19.3112 20.9588C22.9175 24.565 23.3841 27.8319 21.2487 29.9673ZM19.6223 28.341C20.5274 27.4359 20.287 25.8661 17.3455 22.9245C14.418 19.9971 12.9048 19.8133 11.9997 20.7184C11.0946 21.6235 11.2643 23.1508 14.1918 26.0782C17.1333 29.0198 18.7172 29.2461 19.6223 28.341ZM26.3663 24.4538L24.6833 22.7709L26.9319 20.5223L20.3134 13.9037L18.4184 15.7988L17.1314 14.5118C17.98 13.2673 18.4325 12.2774 18.6729 11.1884L20.2144 9.64695L29.0108 18.4434L30.9766 16.4776L32.6595 18.1605L26.3663 24.4538Z" fill="white"/>
</svg>