<svg width="65" height="64" viewBox="0 0 65 64" fill="none" xmlns="http://www.w3.org/2000/svg">
<path fill-rule="evenodd" clip-rule="evenodd" d="M64.1833 -0.000488281H10.1836C4.66075 -0.000488281 0.183594 4.47667 0.183594 9.99952V63.9993L64.1833 -0.000488281Z" fill="#5ADCD4"/>
<path d="M21.4323 31.8755C19.2968 34.011 16.0158 33.5584 12.4096 29.9522C8.78921 26.3318 8.43566 23.1498 10.5711 21.0144C12.7066 18.8789 15.8886 19.2607 19.4948 22.867C23.1011 26.4732 23.5677 29.7401 21.4323 31.8755ZM19.8059 30.2492C20.711 29.3441 20.4706 27.7743 17.529 24.8327C14.6016 21.9053 13.0884 21.7215 12.1833 22.6266C11.2782 23.5317 11.4479 25.059 14.3754 27.9864C17.3169 30.928 18.9008 31.1543 19.8059 30.2492ZM29.4631 23.8447C27.8085 25.4993 26.069 25.9943 24.4992 25.8953L24.1598 23.6043C25.3902 23.5901 26.6206 23.2931 27.5681 22.3456C28.6287 21.2849 28.8267 20.0404 27.8792 19.0929C26.861 18.0747 25.6023 18.0323 23.3254 20.3091L21.8405 18.8242C23.7639 16.9009 23.7214 15.614 22.788 14.6806C21.9678 13.8603 20.9779 13.8886 20.0869 14.7796C19.3374 15.5291 19.0687 16.4766 19.0262 17.6787L16.6928 17.4666C16.8059 15.7695 17.315 14.2704 18.5454 13.0401C20.5677 11.0178 22.9436 10.6501 24.7255 12.432C25.8569 13.5633 26.0407 15.02 25.3761 16.5615L25.4468 16.6322C26.9458 15.7837 28.7277 15.7554 30.0995 17.1272C32.0229 19.0505 31.4572 21.8506 29.4631 23.8447Z" fill="white"/>
</svg>
