<svg width="47" height="40" viewBox="0 0 47 40" fill="none" xmlns="http://www.w3.org/2000/svg">
<g clip-path="url(#clip0_413_512)">
<path d="M39.7099 20.3086C39.7099 9.43137 30.8226 0.617188 19.855 0.617188C8.88737 0.617188 0 9.43137 0 20.3086C0 20.4284 0.00464335 20.5435 0.0092867 20.6586H0V40.0001H21.9863V39.885C31.9509 38.8304 39.7099 30.4675 39.7099 20.3086Z" fill="#5ADCD4"/>
<path d="M26.0955 10.3661C26.0955 4.64195 30.776 0 36.5476 0C42.3193 0 46.9998 4.64195 46.9998 10.3661C46.9998 10.426 46.9998 10.4904 46.9952 10.5503H46.9998V20.7322H35.424V20.6723C30.177 20.1151 26.0908 15.7172 26.0908 10.3661H26.0955Z" fill="#3DB4AD"/>
</g>
<defs>
<clipPath id="clip0_413_512">
<rect width="47" height="40" fill="white"/>
</clipPath>
</defs>
</svg>
