<svg width="134" height="122" viewBox="0 0 134 122" fill="none" xmlns="http://www.w3.org/2000/svg">
<path fill-rule="evenodd" clip-rule="evenodd" d="M119.748 73.2519C114.092 100.513 89.9384 121 61 121C27.8629 121 1 94.1371 1 61C1 27.8629 27.8629 1 61 1C89.9384 1 114.092 21.4868 119.748 48.7481L132 61L119.748 73.2519Z" fill="white"/>
<path d="M119.748 73.2519L119.041 72.5448L118.83 72.7561L118.769 73.0488L119.748 73.2519ZM119.748 48.7481L118.769 48.9512L118.83 49.2439L119.041 49.4552L119.748 48.7481ZM132 61L132.707 61.7071L133.414 61L132.707 60.2929L132 61ZM118.769 73.0488C113.207 99.8553 89.4549 120 61 120V122C90.4219 122 114.977 101.171 120.727 73.4551L118.769 73.0488ZM61 120C28.4152 120 2 93.5848 2 61H0C0 94.6894 27.3106 122 61 122V120ZM2 61C2 28.4152 28.4152 2 61 2V0C27.3106 0 0 27.3106 0 61H2ZM61 2C89.4549 2 113.207 22.1447 118.769 48.9512L120.727 48.5449C114.977 20.8289 90.4219 0 61 0V2ZM119.041 49.4552L131.293 61.7071L132.707 60.2929L120.455 48.041L119.041 49.4552ZM131.293 60.2929L119.041 72.5448L120.455 73.959L132.707 61.7071L131.293 60.2929Z" fill="url(#paint0_linear_409_1026)"/>
<path d="M42.128 36.864V36.384H37.856V36.864H42.128ZM42.128 38.16V37.664H37.856V38.16H42.128ZM42.128 39.472V38.96H37.856V39.472H42.128ZM36.096 35.552H38.848C38.88 35.392 38.928 35.216 38.96 35.04H34.832V33.76H37.216C37.072 33.408 36.864 33.024 36.672 32.72L38.224 32.432C38.496 32.816 38.8 33.344 38.96 33.76H41.152C41.408 33.328 41.68 32.8 41.84 32.416L43.616 32.688C43.376 33.088 43.136 33.456 42.912 33.76H45.264V35.04H40.704L40.496 35.552H43.968V40.32H36.096V35.552ZM34.624 34.592L33.328 35.728C32.912 35.136 31.968 34.256 31.168 33.664L32.4 32.624C33.2 33.168 34.176 33.984 34.624 34.592ZM41.856 42.192V42.864H45.28V44.304H41.856V45.584C41.856 46.432 41.68 46.88 41.04 47.136C40.4 47.376 39.552 47.392 38.368 47.392C38.288 46.88 38.016 46.224 37.776 45.744C38.56 45.792 39.44 45.792 39.68 45.776C39.936 45.776 40.016 45.712 40.016 45.536V44.304H35.264C35.904 44.752 36.56 45.296 36.928 45.712L35.552 46.88C35.136 46.352 34.176 45.536 33.424 45.008L34.272 44.304H30.736V42.864H40.016V42.192C38.944 42.192 37.952 42.176 37.216 42.16C35.6 42.096 34.512 41.744 33.744 40.736C32.976 41.264 32.192 41.76 31.296 42.304L30.656 40.8C31.248 40.512 31.952 40.16 32.624 39.776V37.84H30.784V36.4H34.352V39.504C34.88 40.384 35.84 40.736 37.2 40.784C39.136 40.864 43.312 40.816 45.52 40.656C45.36 41.008 45.136 41.696 45.056 42.112C44.208 42.144 43.056 42.176 41.856 42.192ZM49.696 33.344H55.232C55.232 36.368 55.664 42.208 61.552 45.68C61.136 46.016 60.352 46.848 60.016 47.344C56.704 45.344 55.008 42.32 54.128 39.456C52.928 43.04 51.008 45.696 48.224 47.36C47.872 46.96 46.976 46.176 46.48 45.808C49.808 44.128 51.712 41.04 52.592 36.832L53.568 37.008C53.456 36.4 53.392 35.824 53.344 35.28H49.696V33.344ZM66.544 44.192C66.544 44.8 67.12 45.168 68.224 45.168C69.072 45.168 69.632 44.928 69.632 44C69.632 43.824 69.632 43.6 69.616 43.312C69.184 43.248 68.752 43.2 68.304 43.2C67.168 43.2 66.544 43.648 66.544 44.192ZM71.552 33.056C71.504 33.376 71.472 33.776 71.456 34.192C71.44 34.352 71.44 34.592 71.44 34.848C72.752 34.784 74.08 34.656 75.488 34.416L75.472 36.256C74.416 36.384 72.96 36.528 71.408 36.608C71.408 37.168 71.408 37.76 71.408 38.256C73.024 38.176 74.384 38.048 75.68 37.872L75.664 39.76C74.224 39.92 72.976 40.032 71.44 40.08C71.472 40.688 71.504 41.344 71.552 41.984C73.568 42.56 75.104 43.632 76.032 44.4L74.88 46.192C74.016 45.392 72.928 44.544 71.648 43.968C71.664 44.192 71.664 44.384 71.664 44.56C71.664 45.92 70.624 46.976 68.512 46.976C65.952 46.976 64.608 46 64.608 44.304C64.608 42.688 66.096 41.552 68.56 41.552C68.896 41.552 69.232 41.568 69.552 41.6C69.52 41.104 69.504 40.592 69.488 40.112C69.216 40.112 68.944 40.112 68.656 40.112C67.728 40.112 65.904 40.032 64.848 39.904L64.832 38.016C65.872 38.208 67.84 38.32 68.688 38.32C68.944 38.32 69.2 38.32 69.456 38.32C69.456 37.792 69.456 37.216 69.472 36.672C69.264 36.672 69.072 36.672 68.88 36.672C67.872 36.672 66.016 36.528 64.96 36.384L64.912 34.56C66.064 34.752 67.888 34.912 68.864 34.912C69.072 34.912 69.28 34.912 69.488 34.912C69.488 34.608 69.488 34.352 69.488 34.16C69.488 33.856 69.456 33.36 69.392 33.056H71.552ZM79.104 35.024C79.744 35.008 80.368 34.976 80.672 34.944C82.016 34.832 84.656 34.592 87.584 34.352C89.232 34.208 90.976 34.112 92.112 34.064L92.128 36.112C91.264 36.128 89.888 36.128 89.04 36.336C87.104 36.848 85.648 38.912 85.648 40.816C85.648 43.456 88.112 44.4 90.832 44.544L90.08 46.736C86.72 46.512 83.552 44.72 83.552 41.248C83.552 38.944 84.848 37.12 85.936 36.304C84.432 36.464 81.168 36.816 79.312 37.216L79.104 35.024ZM89.84 37.68C90.24 38.256 90.816 39.232 91.12 39.856L89.904 40.4C89.504 39.52 89.168 38.896 88.656 38.176L89.84 37.68ZM91.632 36.944C92.032 37.504 92.64 38.448 92.976 39.072L91.776 39.648C91.344 38.784 90.976 38.192 90.464 37.488L91.632 36.944ZM37.392 55.36C37.296 55.776 37.184 56.288 37.104 56.688C36.992 57.168 36.88 57.76 36.768 58.336C37.296 58.304 37.776 58.272 38.112 58.272C39.808 58.272 41.008 59.024 41.008 61.328C41.008 63.216 40.784 65.808 40.096 67.2C39.568 68.32 38.672 68.672 37.472 68.672C36.848 68.672 36.096 68.56 35.552 68.448L35.2 66.336C35.824 66.512 36.736 66.672 37.168 66.672C37.696 66.672 38.112 66.512 38.368 65.984C38.8 65.072 39.008 63.136 39.008 61.552C39.008 60.272 38.464 60.096 37.456 60.096C37.2 60.096 36.8 60.128 36.352 60.16C35.744 62.592 34.56 66.384 33.088 68.736L31.008 67.904C32.56 65.808 33.664 62.576 34.24 60.384C33.664 60.448 33.168 60.512 32.864 60.544C32.416 60.624 31.568 60.736 31.088 60.816L30.896 58.64C31.472 58.688 32.016 58.656 32.608 58.64C33.104 58.624 33.856 58.576 34.672 58.512C34.896 57.296 35.024 56.128 35.008 55.12L37.392 55.36ZM42.896 56.864C43.888 58.24 45.232 61.296 45.712 62.816L43.68 63.76C43.264 61.984 42.128 59.088 40.992 57.68L42.896 56.864ZM55.232 56.112C55.072 56.336 54.896 56.608 54.72 56.864C53.936 58.016 52.816 60.064 52.016 61.472C52.608 61.136 53.248 60.992 53.856 60.992C55.056 60.992 55.776 61.744 55.84 63.072C55.872 63.792 55.824 65.072 55.904 65.744C55.968 66.368 56.416 66.608 56.944 66.608C58.336 66.608 59.184 64.816 59.648 62.832L61.376 64.24C60.544 66.976 59.056 68.8 56.608 68.8C54.832 68.8 54 67.744 53.936 66.576C53.872 65.728 53.888 64.416 53.84 63.76C53.792 63.2 53.472 62.864 52.896 62.864C51.808 62.864 50.912 63.984 50.336 65.28C49.92 66.208 49.36 68 49.12 68.848L46.864 68.08C48.048 64.88 51.328 58.352 52.176 56.832C52.384 56.4 52.688 55.872 52.96 55.2L55.232 56.112ZM71.392 64.096C71.264 64.544 71.168 65.072 71.168 65.424C71.168 66.128 71.648 66.656 73.36 66.656C74.432 66.656 75.536 66.528 76.688 66.32L76.608 68.368C75.712 68.48 74.624 68.592 73.344 68.592C70.656 68.592 69.2 67.664 69.2 66.048C69.2 65.312 69.36 64.544 69.488 63.904L71.392 64.096ZM69.584 55.232C69.456 55.664 69.312 56.384 69.248 56.736C69.216 56.912 69.168 57.12 69.12 57.344C70.016 57.216 70.912 57.04 71.792 56.832V58.832C70.832 59.056 69.744 59.232 68.672 59.36C68.528 60.048 68.368 60.752 68.192 61.408C67.616 63.648 66.544 66.912 65.648 68.816L63.424 68.064C64.384 66.464 65.6 63.104 66.192 60.864C66.304 60.432 66.432 59.984 66.528 59.52C66.16 59.536 65.808 59.552 65.472 59.552C64.704 59.552 64.096 59.52 63.536 59.488L63.488 57.488C64.304 57.584 64.848 57.616 65.504 57.616C65.968 57.616 66.448 57.6 66.944 57.568C67.008 57.216 67.056 56.912 67.088 56.656C67.152 56.064 67.184 55.408 67.136 55.04L69.584 55.232ZM70.528 60.064C71.424 59.984 72.576 59.904 73.6 59.904C74.512 59.904 75.472 59.952 76.416 60.048L76.368 61.968C75.568 61.872 74.592 61.776 73.616 61.776C72.528 61.776 71.536 61.824 70.528 61.936V60.064ZM87.232 56.112C87.072 56.336 86.896 56.608 86.72 56.864C85.936 58.016 84.816 60.064 84.016 61.472C84.608 61.136 85.248 60.992 85.856 60.992C87.056 60.992 87.776 61.744 87.84 63.072C87.872 63.792 87.824 65.072 87.904 65.744C87.968 66.368 88.416 66.608 88.944 66.608C90.336 66.608 91.184 64.816 91.648 62.832L93.376 64.24C92.544 66.976 91.056 68.8 88.608 68.8C86.832 68.8 86 67.744 85.936 66.576C85.872 65.728 85.888 64.416 85.84 63.76C85.792 63.2 85.472 62.864 84.896 62.864C83.808 62.864 82.912 63.984 82.336 65.28C81.92 66.208 81.36 68 81.12 68.848L78.864 68.08C80.048 64.88 83.328 58.352 84.176 56.832C84.384 56.4 84.688 55.872 84.96 55.2L87.232 56.112ZM29.6731 90.224C27.8011 90.224 26.5371 89.52 25.7051 88.576L26.8091 87.088C27.5131 87.776 28.3771 88.304 29.4491 88.304C30.6491 88.304 31.4651 87.712 31.4651 86.64C31.4651 85.488 30.7771 84.752 28.2011 84.752V83.072C30.3771 83.072 31.0811 82.32 31.0811 81.264C31.0811 80.336 30.5051 79.792 29.4971 79.792C28.6491 79.792 27.9611 80.176 27.2571 80.832L26.0571 79.392C27.0811 78.496 28.2171 77.936 29.6091 77.936C31.8971 77.936 33.4491 79.072 33.4491 81.088C33.4491 82.368 32.7291 83.296 31.4811 83.792V83.872C32.8091 84.24 33.8331 85.232 33.8331 86.784C33.8331 88.96 31.9291 90.224 29.6731 90.224ZM48.0549 79.152C47.9269 79.328 47.6389 79.824 47.4949 80.144C46.9509 81.392 46.0549 83.104 44.9829 84.544C46.5669 85.92 48.5029 87.968 49.4469 89.12L47.6229 90.704C46.5829 89.264 45.0949 87.632 43.5909 86.176C41.8949 87.968 39.7669 89.632 37.5749 90.672L35.9269 88.944C38.5029 87.984 40.9829 86.032 42.4869 84.352C43.5429 83.152 44.5189 81.568 44.8709 80.432H39.4469C38.7749 80.432 37.8949 80.528 37.5589 80.544V78.272C37.9909 78.336 38.9669 78.384 39.4469 78.384H45.0949C45.7829 78.384 46.4229 78.288 46.7429 78.176L48.0549 79.152ZM53.9269 77.728C54.4549 77.808 55.1109 77.84 55.6389 77.84H62.0709C62.6149 77.84 63.2549 77.808 63.7989 77.728V79.792C63.2549 79.76 62.6309 79.728 62.0709 79.728H55.6549C55.0949 79.728 54.4229 79.76 53.9269 79.792V77.728ZM52.0709 81.824C52.5509 81.872 53.1109 81.92 53.6069 81.92H64.0869C64.4229 81.92 65.1269 81.888 65.5429 81.824V83.904C65.1429 83.872 64.5349 83.856 64.0869 83.856H60.2309C60.1349 85.504 59.7829 86.848 59.2069 87.968C58.6469 89.072 57.4149 90.32 55.9909 91.04L54.1189 89.68C55.2549 89.248 56.3749 88.32 57.0149 87.392C57.6709 86.4 57.9429 85.2 58.0069 83.856H53.6069C53.1269 83.856 52.5189 83.888 52.0709 83.92V81.824ZM74.7909 80.496C75.0949 81.184 75.8789 83.264 76.1029 84L74.1829 84.672C73.9909 83.888 73.2869 81.952 72.8869 81.12L74.7909 80.496ZM80.6949 81.664C80.5029 82.176 80.4069 82.512 80.3109 82.832C79.8949 84.448 79.2229 86.112 78.1349 87.52C76.6469 89.44 74.6469 90.784 72.7749 91.488L71.0949 89.776C72.8549 89.312 75.0789 88.096 76.4069 86.432C77.4949 85.072 78.2629 82.944 78.4549 80.944L80.6949 81.664ZM71.0789 81.344C71.4789 82.16 72.2469 84.096 72.5669 84.992L70.6149 85.728C70.3429 84.864 69.5429 82.736 69.1589 82.032L71.0789 81.344ZM95.5749 78.272C95.5749 78.768 95.9909 79.184 96.5029 79.184C96.9989 79.184 97.4149 78.768 97.4149 78.272C97.4149 77.76 96.9989 77.344 96.5029 77.344C95.9909 77.344 95.5749 77.76 95.5749 78.272ZM94.5829 78.272C94.5829 77.216 95.4469 76.352 96.5029 76.352C97.5429 76.352 98.4069 77.216 98.4069 78.272C98.4069 79.312 97.5429 80.176 96.5029 80.176C96.4389 80.176 96.3589 80.176 96.2949 80.16C96.2469 80.336 96.2149 80.496 96.1669 80.64C95.7989 82.208 95.1109 84.688 93.7669 86.464C92.3269 88.384 90.1829 89.968 87.3349 90.896L85.5909 88.976C88.7589 88.24 90.5669 86.848 91.8629 85.216C92.9189 83.888 93.5269 82.08 93.7349 80.704H86.2949C85.5589 80.704 84.7909 80.736 84.3909 80.768V78.512C84.8549 78.576 85.7669 78.64 86.2949 78.64H93.7029C93.9269 78.64 94.2789 78.624 94.6149 78.576C94.5989 78.48 94.5829 78.384 94.5829 78.272Z" fill="url(#paint1_linear_409_1026)"/>
<defs>
<linearGradient id="paint0_linear_409_1026" x1="66.5" y1="1" x2="66.5" y2="121" gradientUnits="userSpaceOnUse">
<stop stop-color="#1EB3E2"/>
<stop offset="1" stop-color="#00BEBE"/>
</linearGradient>
<linearGradient id="paint1_linear_409_1026" x1="62" y1="28" x2="62" y2="94" gradientUnits="userSpaceOnUse">
<stop stop-color="#1EB3E2"/>
<stop offset="1" stop-color="#00BEBE"/>
</linearGradient>
</defs>
</svg>
