<svg width="42" height="42" viewBox="0 0 42 42" fill="none" xmlns="http://www.w3.org/2000/svg">
<path d="M20.9976 0C9.40284 0 0 9.40284 0 20.9976C0 32.5923 9.40284 41.9951 20.9976 41.9951C32.5923 41.9951 41.9951 32.5923 41.9951 20.9976C41.9951 9.40284 32.5972 0 20.9976 0ZM20.9976 32.8881C14.4316 32.8881 9.11188 27.5684 9.11188 21.0024C9.11188 14.4364 14.4316 9.11673 20.9976 9.11673C27.5636 9.11673 32.8833 14.4364 32.8833 21.0024C32.8833 27.5684 27.5636 32.8881 20.9976 32.8881Z" fill="#5ADCD4"/>
<path d="M13.5781 17.729L20.6581 24.6344L36.6609 13.0591" stroke="#3DB4AD" stroke-width="6.18982" stroke-linecap="round" stroke-linejoin="round"/>
</svg>
