<svg width="65" height="65" viewBox="0 0 65 65" fill="none" xmlns="http://www.w3.org/2000/svg">
<path fill-rule="evenodd" clip-rule="evenodd" d="M64.0918 0.0913086H10.0918C4.56895 0.0913086 0.0917969 4.56847 0.0917969 10.0913V64.0913L64.0918 0.0913086Z" fill="#5ADCD4"/>
<path d="M21.3405 29.9673C19.205 32.1028 15.924 31.6502 12.3178 28.044C8.69741 24.4236 8.34386 21.2416 10.4793 19.1062C12.6148 16.9707 15.7968 17.3525 19.403 20.9588C23.0093 24.565 23.4759 27.8319 21.3405 29.9673ZM19.7141 28.341C20.6192 27.4359 20.3788 25.8661 17.4373 22.9245C14.5098 19.9971 12.9966 19.8133 12.0915 20.7184C11.1864 21.6235 11.3561 23.1508 14.2836 26.0782C17.2251 29.0198 18.809 29.2461 19.7141 28.341ZM25.9065 25.0053L24.7044 23.8032C25.0014 18.4151 24.7186 14.7664 23.1064 13.1542C22.0457 12.0935 20.8436 12.0228 19.8395 13.0269C19.0759 13.7906 18.9486 14.9078 18.991 16.0251L16.7283 16.0251C16.6576 14.031 17.0394 12.5461 18.4678 11.1177C20.4476 9.13784 23.0357 9.09541 24.9873 11.047C26.8823 12.9421 27.349 16.5483 27.3066 20.3243C27.7733 19.7444 28.4097 18.9949 28.9046 18.4999L31.1674 16.2372L32.921 17.9908L25.9065 25.0053Z" fill="white"/>
</svg>