<svg width="409" height="80" viewBox="0 0 409 80" fill="none" xmlns="http://www.w3.org/2000/svg">
<g clip-path="url(#clip0_0_1)">
<path d="M194.468 46.5758C194.468 37.0456 200.449 29.29 211.228 29.29C222.007 29.29 226.739 35.7311 226.739 44.2097C226.739 46.3786 226.411 48.0875 226.411 48.0875H202.487C202.947 53.6742 206.036 57.2233 211.951 57.2233C218.787 57.2233 220.298 53.6742 220.298 53.6742H226.082V58.012C226.082 58.012 222.796 63.8616 211.885 63.8616C200.318 63.8616 194.468 56.5661 194.468 46.5758ZM218.984 42.698C218.984 38.8859 216.486 35.8626 211.228 35.8626C205.97 35.8626 203.604 38.6888 202.75 42.698H218.984Z" fill="#5ADCD4"/>
<path d="M234.035 30.0787H241.33L241.922 35.0739C244.288 31.5247 248.232 29.29 253.227 29.29C262.757 29.29 268.344 36.9799 268.344 46.5101C268.344 56.0403 262.625 63.8616 253.227 63.8616C248.232 63.8616 244.42 61.6926 241.988 58.2092V79.5042H234.035V30.0787ZM260.325 46.5101C260.325 40.8577 257.302 36.2569 251.189 36.2569C245.537 36.2569 241.988 40.792 241.988 46.5101C241.988 52.2282 245.537 56.8947 251.189 56.8947C257.302 56.8947 260.325 52.2282 260.325 46.5101Z" fill="#5ADCD4"/>
<path d="M273.667 46.5758C273.667 37.0456 279.648 29.29 290.427 29.29C301.206 29.29 305.939 35.7311 305.939 44.2097C305.939 46.3786 305.61 48.0875 305.61 48.0875H281.686C282.146 53.6742 285.235 57.2233 291.15 57.2233C297.986 57.2233 299.498 53.6742 299.498 53.6742H305.281V58.012C305.281 58.012 301.995 63.8616 291.085 63.8616C279.517 63.8616 273.667 56.5661 273.667 46.5758ZM298.183 42.698C298.183 38.8859 295.685 35.8626 290.427 35.8626C285.169 35.8626 282.803 38.6888 281.949 42.698H298.183Z" fill="#5ADCD4"/>
<path d="M312.242 53.6084C312.242 47.7589 316.383 43.6182 325.979 43.6182C329.791 43.6182 332.88 44.4069 332.88 44.4069V42.6323C332.88 38.2287 330.974 35.994 326.505 35.994C321.509 35.994 319.801 39.5432 319.801 39.5432H314.148V35.2053C314.148 35.2053 317.172 29.29 326.702 29.29C336.232 29.29 340.898 33.8908 340.898 42.8295V63.0729H334.063L333.34 58.5378C331.697 61.0354 328.608 63.8616 323.284 63.8616C315.923 63.8616 312.242 59.2608 312.242 53.6084ZM332.886 51.2423V49.6649C332.886 49.6649 330.125 48.8762 326.248 48.8762C321.515 48.8762 320.135 50.9794 320.135 53.2141C320.135 56.2374 321.976 57.552 325.262 57.552C330.191 57.552 332.886 54.0028 332.886 51.2423Z" fill="#5ADCD4"/>
<path d="M351.743 51.7019V36.7165H346.551V30.0783H351.941L352.401 21.7969H359.696V30.0783H372.71V36.7165H359.696V51.1761C359.696 54.9882 360.945 57.1571 364.363 57.1571C367.78 57.1571 368.306 54.5938 368.306 54.2652H373.827V58.6688C372.578 61.1007 369.818 63.8611 364.034 63.8611C356.015 63.8611 351.743 59.4575 351.743 51.7019Z" fill="#5ADCD4"/>
<path d="M380.136 57.7491V53.4113H385.789C385.855 53.8056 388.089 57.552 393.873 57.552C398.211 57.552 399.657 56.106 399.657 53.9371C399.657 51.2423 396.962 50.5851 393.413 49.8621L389.601 49.1391C384.606 48.2847 380.728 45.5899 380.728 39.6089C380.728 33.9565 385.197 29.29 393.216 29.29C400.511 29.29 403.995 32.1162 405.375 35.0081V39.346H399.788C399.723 39.0174 398.145 35.534 393.15 35.534C389.469 35.534 388.089 37.1114 388.089 39.2146C388.089 41.3178 390.061 42.4351 393.019 43.0266L396.831 43.7496C402.22 44.7355 406.952 46.9044 406.952 53.1484C406.952 59.3923 402.417 63.8616 393.873 63.8616C384.08 63.8616 380.531 58.6693 380.136 57.7491Z" fill="#5ADCD4"/>
<path d="M181.036 40.1885H171.895L183.534 63.0729H193.213L181.036 40.1885ZM155.648 44.0364V63.0729H164.539V44.0364H155.648Z" fill="#5ADCD4"/>
<path d="M187.519 20.0107V30.0548C187.519 33.1737 184.992 35.6952 181.879 35.6952H163.559" stroke="#5ADCD4" stroke-width="8.96255" stroke-miterlimit="10"/>
<path d="M155.702 35.9697L164.51 27.1445V44.0838L155.702 35.9697Z" fill="#5ADCD4"/>
<path d="M160.022 27.1449V16.3719C160.022 13.2529 162.55 10.7314 165.663 10.7314C253.018 19.6223 332.133 20.5186 400.219 10.7314" stroke="#5ADCD4" stroke-width="8.96255" stroke-miterlimit="10"/>
<path d="M408.5 9.29118L398.253 23.4221L394.542 0L408.5 9.29118Z" fill="#5ADCD4"/>
</g>
<path d="M4.992 48.224C3.408 48.224 1.824 47.6 0.672 46.496L2.032 44.864C2.88 45.648 4 46.176 5.04 46.176C6.272 46.176 6.928 45.648 6.928 44.816C6.928 43.936 6.208 43.664 5.152 43.216L3.568 42.544C2.368 42.048 1.168 41.088 1.168 39.36C1.168 37.424 2.864 35.936 5.264 35.936C6.64 35.936 8.016 36.48 8.976 37.456L7.776 38.944C7.024 38.32 6.24 37.968 5.264 37.968C4.224 37.968 3.568 38.432 3.568 39.216C3.568 40.064 4.4 40.368 5.408 40.768L6.96 41.424C8.4 42.016 9.344 42.928 9.344 44.64C9.344 46.576 7.728 48.224 4.992 48.224ZM11.4404 48V36.144H13.8564L17.2964 42.464L18.4804 45.024H18.5604C18.4484 43.792 18.2564 42.224 18.2564 40.88V36.144H20.4964V48H18.0964L14.6724 41.664L13.4724 39.12H13.3924C13.5044 40.4 13.6804 41.888 13.6804 43.248V48H11.4404ZM26.9608 48.224C25.3768 48.224 23.7928 47.6 22.6408 46.496L24.0008 44.864C24.8488 45.648 25.9688 46.176 27.0088 46.176C28.2408 46.176 28.8968 45.648 28.8968 44.816C28.8968 43.936 28.1768 43.664 27.1208 43.216L25.5368 42.544C24.3368 42.048 23.1368 41.088 23.1368 39.36C23.1368 37.424 24.8328 35.936 27.2328 35.936C28.6088 35.936 29.9848 36.48 30.9448 37.456L29.7448 38.944C28.9928 38.32 28.2088 37.968 27.2328 37.968C26.1927 37.968 25.5368 38.432 25.5368 39.216C25.5368 40.064 26.3688 40.368 27.3768 40.768L28.9288 41.424C30.3688 42.016 31.3128 42.928 31.3128 44.64C31.3128 46.576 29.6968 48.224 26.9608 48.224ZM45.3451 40.112V39.136H42.4811V40.112H45.3451ZM45.3451 42.432V41.44H42.4811V42.432H45.3451ZM45.3451 44.752V43.776H42.4811V44.752H45.3451ZM40.9291 37.696H42.8491C42.8971 37.36 42.9291 37.024 42.9611 36.688H40.6091V35.088H47.2171V36.688H44.8491C44.7531 37.04 44.6571 37.376 44.5611 37.696H46.9611V46.176H40.9291V37.696ZM40.0331 35.088V36.656H32.8331V35.088H40.0331ZM36.5611 46.704V47.328H37.5211V46.704H36.5611ZM36.5131 41.008L37.1051 41.152C36.9931 41.504 36.8651 41.872 36.7211 42.224H37.6011C37.7451 41.824 37.8891 41.376 37.9851 41.008H36.5131ZM34.8011 41.008V41.6C34.8011 42.064 34.8011 42.592 34.7691 43.136C35.1691 42.496 35.5211 41.776 35.7451 41.008H34.8011ZM38.3371 38.768H34.8011V39.712H38.3371V38.768ZM37.5211 44.016V43.392H36.5611V44.016H37.5211ZM37.5211 45.664V45.056H36.5611V45.664H37.5211ZM40.3691 47.328V48.016C41.1211 47.536 41.8891 46.864 42.3051 46.32L43.8091 47.216C43.1051 48.032 41.9851 48.928 41.0411 49.424C40.8171 49.184 40.4651 48.848 40.1451 48.56H36.5611V49.2H35.2331V44.816L35.2011 44.848C35.0891 44.72 34.8971 44.528 34.7051 44.352C34.5771 46.048 34.2731 47.872 33.6331 49.216C33.3611 48.912 32.6571 48.416 32.2891 48.24C33.1531 46.304 33.2171 43.568 33.2171 41.6V37.472H40.0171V41.008H38.4171L39.4251 41.28L38.9451 42.224H40.1611V43.392H38.7211V44.016H40.0971V45.056H38.7211V45.664H40.0971V46.704H38.7211V47.328H40.3691ZM44.2251 47.232L45.5691 46.384C46.2571 46.976 47.1691 47.856 47.6171 48.448L46.1931 49.408C45.7771 48.8 44.9131 47.888 44.2251 47.232ZM53.4091 44.4H58.6091C57.6331 44.112 56.7211 43.744 55.8731 43.328C55.1051 43.728 54.2731 44.096 53.4091 44.4ZM53.3131 47.328H58.6411V45.968H53.3131V47.328ZM54.0811 39.936L54.0011 40C54.5291 40.48 55.1531 40.928 55.8731 41.312C56.5451 40.896 57.1531 40.432 57.6331 39.936H54.0811ZM59.2491 38.432L60.5291 39.2C59.8411 40.352 58.8971 41.312 57.7771 42.144C59.4411 42.736 61.3771 43.136 63.4411 43.344C63.0411 43.792 62.4971 44.64 62.2411 45.184C61.6811 45.104 61.1371 45.008 60.6091 44.912V49.36H58.6411V48.896H53.3131V49.392H51.4571V45.024C50.7531 45.216 50.0491 45.376 49.3291 45.52C49.1691 45.008 48.7691 44.224 48.4491 43.824C50.4011 43.52 52.3691 42.992 54.0651 42.24C53.5531 41.872 53.0731 41.472 52.6251 41.04C52.0331 41.424 51.3931 41.776 50.6731 42.112C50.4171 41.664 49.8251 40.992 49.4091 40.704C51.6331 39.856 53.1051 38.672 53.9051 37.488H50.9611V39.264H49.0891V35.76H54.9291V34.464H56.8811V35.76H62.8171V39.264H60.8651V37.488H54.1771L55.9531 37.84C55.7931 38.064 55.6171 38.288 55.4411 38.512H58.9291L59.2491 38.432ZM75.7451 46.672H69.4091V47.568H75.7451V46.672ZM74.5291 42.352H69.4091V43.184H74.5291V42.352ZM69.4091 44.544V45.28H77.6331V49.408H75.7451V48.976H69.4091V49.408H67.5851V40.976H76.4171V44.544H69.4091ZM79.3131 35.568V37.056H76.6731C76.9451 37.44 77.2011 37.824 77.3451 38.128L75.5851 38.624C75.4091 38.208 75.0091 37.584 74.6251 37.056H73.6971C73.4091 37.424 73.1051 37.744 72.8171 38.032V38.896H78.9451V42.064H77.0891V40.32H66.8971V42.064H65.1051V38.896H70.9931V37.776H71.6971C71.4091 37.616 71.1051 37.472 70.8971 37.376C71.0251 37.28 71.1691 37.168 71.2971 37.056H69.4251C69.6491 37.44 69.8411 37.824 69.9531 38.112L68.2411 38.592C68.1131 38.192 67.8251 37.584 67.5051 37.056H67.2491C66.8331 37.648 66.3851 38.176 65.9691 38.592C65.6011 38.288 64.8491 37.776 64.4171 37.568C65.3771 36.768 66.2891 35.536 66.7691 34.32L68.5451 34.8C68.4331 35.056 68.3051 35.312 68.1771 35.568H71.7291V36.64C72.3691 35.984 72.9131 35.152 73.2491 34.32L75.0571 34.752C74.9451 35.024 74.8171 35.296 74.6731 35.568H79.3131ZM85.6971 44.4L86.0171 46.192C84.2571 46.816 82.3371 47.424 80.8011 47.92L80.3691 45.984C80.9291 45.84 81.5851 45.664 82.3211 45.456V41.696H80.7051V39.952H82.3211V37.136H80.5611V35.36H85.8411V37.136H84.1291V39.952H85.5691V41.696H84.1291V44.896C84.6571 44.736 85.1851 44.576 85.6971 44.4ZM88.1611 39.568V40.944H89.8091V39.568H88.1611ZM88.1611 36.736V38.08H89.8091V36.736H88.1611ZM92.9931 38.08V36.736H91.4091V38.08H92.9931ZM92.9931 40.944V39.568H91.4091V40.944H92.9931ZM91.5851 47.168H95.5211V48.896H85.2331V47.168H89.6491V45.648H86.3371V43.936H89.6491V42.56H86.4491V35.12H94.8011V42.56H91.5851V43.936H94.9771V45.648H91.5851V47.168ZM103.521 35.536C103.921 36.32 104.897 38.784 105.201 39.824L103.185 40.528C102.881 39.504 102.001 37.184 101.521 36.192L103.521 35.536ZM110.833 36.816C110.657 37.216 110.513 37.696 110.417 38.048C109.969 39.792 109.057 42.336 107.729 44.08C106.049 46.288 103.729 47.904 101.441 48.768L99.6491 46.976C101.841 46.352 104.337 44.912 105.969 42.848C107.169 41.328 108.161 38.576 108.433 36.128L110.833 36.816ZM99.0731 36.528C99.5531 37.536 100.561 39.92 100.929 41.008L98.8651 41.76C98.5451 40.72 97.4891 38.096 97.0251 37.232L99.0731 36.528ZM113.425 40.592C114.001 40.64 115.169 40.688 116.001 40.688H124.593C125.345 40.688 126.049 40.624 126.465 40.592V43.104C126.081 43.088 125.265 43.024 124.593 43.024H116.001C115.089 43.024 114.017 43.056 113.425 43.104V40.592ZM136.001 47.648C136.065 47.344 136.129 46.896 136.129 46.464V37.136C136.129 36.416 136.017 35.808 136.001 35.76H138.385C138.369 35.808 138.273 36.432 138.273 37.152V45.52C139.569 44.96 141.153 43.696 142.225 42.144L143.457 43.904C142.129 45.632 139.825 47.36 138.033 48.272C137.681 48.464 137.489 48.624 137.345 48.752L136.001 47.648ZM128.593 47.408C130.001 46.416 130.865 44.944 131.313 43.584C131.761 42.208 131.777 39.184 131.777 37.248C131.777 36.608 131.729 36.176 131.633 35.776H133.985C133.969 35.856 133.873 36.56 133.873 37.232C133.873 39.12 133.825 42.496 133.393 44.112C132.913 45.92 131.905 47.488 130.545 48.704L128.593 47.408Z" fill="#5ADCD4"/>
<line y1="-1" x2="147.178" y2="-1" transform="matrix(0.997949 -0.0640072 0.0427832 0.999084 0.123291 67.7109)" stroke="#5ADCD4" stroke-width="2"/>
<line y1="-1" x2="147.178" y2="-1" transform="matrix(-0.997949 -0.0640072 -0.0427832 0.999084 147 26.7109)" stroke="#5ADCD4" stroke-width="2"/>
<defs>
<clipPath id="clip0_0_1">
<rect width="254" height="80" fill="white" transform="translate(155)"/>
</clipPath>
</defs>
</svg>
