<svg width="59" height="67" viewBox="0 0 59 67" fill="none" xmlns="http://www.w3.org/2000/svg">
<path d="M58.3181 40.7299V15.9982C58.3181 13.118 56.0393 10.7756 53.2373 10.7756C51.9533 10.7756 50.7792 11.267 49.8845 12.0771V10.3606C49.8845 7.4804 47.6057 5.13805 44.8037 5.13805C43.5198 5.13805 42.3456 5.62943 41.4509 6.43954V5.21939C41.4509 2.33918 39.1721 -0.00317383 36.3701 -0.00317383C33.5681 -0.00317383 31.2893 2.33918 31.2893 5.21939V24.0296L29.944 19.8147C29.9407 19.8047 29.9375 19.7931 29.9327 19.7832C29.8729 19.6171 28.4226 15.716 23.7665 15.2246C22.2032 15.0603 19.3107 16.3501 16.2196 18.5912C14.5303 19.8164 10.5541 22.846 10.11 24.5027C9.54959 26.5911 10.0987 28.0934 10.6575 28.9849C10.8028 29.2173 10.9676 29.4348 11.1468 29.6373C10.0777 29.9627 9.10546 30.7396 8.47561 31.8269C7.64549 33.2612 7.60835 34.8997 8.37871 36.1016C11.5651 41.0768 19.4528 53.1355 23.949 57.7688C27.515 63.0378 33.35 66.1787 39.592 66.1787C50.0929 66.1787 58.6363 57.3969 58.6363 46.6032C58.6363 45.569 58.5038 43.6184 58.4053 42.1957C58.3601 41.54 58.3149 40.8627 58.3149 40.7249L58.3181 40.7299ZM39.5953 64.3559C33.8878 64.3559 28.5534 61.4591 25.3283 56.6067C25.2669 56.5154 25.1926 56.4374 25.107 56.376C20.5785 51.6465 12.308 38.9171 9.86452 35.1006C9.39455 34.3668 9.62873 33.4123 10.005 32.7632C10.4298 32.0278 11.3245 31.2044 12.4388 31.3024C17.0659 31.7057 21.0033 39.5462 21.5217 40.622L21.5314 40.695C21.5863 41.115 21.9157 41.4404 22.326 41.4802C22.7362 41.5217 23.1189 41.2677 23.253 40.866C23.6083 39.7952 24.0669 38.756 24.6144 37.7766C24.7242 37.5791 24.7598 37.3483 24.7113 37.1259C24.6596 36.8835 24.6338 36.6378 24.6338 36.3938C24.6338 36.3357 24.629 36.2776 24.6177 36.2195L23.295 29.2339C23.2578 28.2578 23.0382 26.1146 21.8285 25.5203C21.4975 25.3577 20.8175 25.1817 19.9826 25.8324C16.9124 28.2196 15.2425 29.4547 13.7728 29.2156C13.2997 29.1393 12.6149 28.7326 12.1546 27.9988C11.7912 27.4211 11.4408 26.4284 11.8268 24.9924C11.9802 24.4778 13.7632 22.6152 17.2484 20.0853C20.5252 17.7081 22.8347 16.9644 23.5889 17.0424C27.045 17.4059 28.1804 20.1832 28.2643 20.4057L31.286 29.8764C31.3652 30.122 31.5477 30.3196 31.777 30.4242C32.0079 30.5288 32.276 30.5254 32.5054 30.4192L32.5425 30.4026C32.8623 30.2548 33.0674 29.9295 33.0674 29.5692V5.22271C33.0674 3.35016 34.55 1.82622 36.3717 1.82622C38.1934 1.82622 39.676 3.35016 39.676 5.22271V27.9739C39.676 28.4603 40.0588 28.8604 40.5304 28.887H40.5627C40.8065 28.9052 41.0456 28.8139 41.2232 28.6413C41.4009 28.4686 41.501 28.2279 41.501 27.9772V10.3623C41.501 8.48972 42.9836 6.96578 44.8053 6.96578C46.627 6.96578 48.1096 8.48972 48.1096 10.3623V30.64C48.1096 30.9587 48.2711 31.2542 48.536 31.4202L48.586 31.4518C48.8606 31.6227 49.203 31.6294 49.4824 31.4667C49.7618 31.3057 49.9346 31.0002 49.9346 30.6715V15.9982C49.9346 14.1256 51.4172 12.6017 53.2389 12.6017C55.0606 12.6017 56.5432 14.1256 56.5432 15.9982V40.7299C56.5432 40.9224 56.5755 41.4105 56.6385 42.3285C56.7338 43.7246 56.8646 45.637 56.8646 46.6082C56.8646 56.3942 49.119 64.3576 39.5969 64.3576L39.5953 64.3559ZM15.9224 30.7097C17.321 30.1536 18.8827 28.9783 21.0533 27.29C21.0727 27.275 21.0905 27.2618 21.1066 27.2518C21.3053 27.5954 21.4942 28.5367 21.5217 29.3684C21.5217 29.4182 21.5281 29.4663 21.5378 29.5145L22.8573 36.4901C22.8605 36.7158 22.8799 36.9416 22.9122 37.1657C22.7087 37.5442 22.5181 37.9293 22.3405 38.3211C21.1696 36.2078 18.8682 32.6055 15.924 30.7114L15.9224 30.7097Z" fill="#5ADCD4"/>
<path d="M7.41925 15.437L1.11748 12.3941C0.72503 12.2049 0.258292 12.3775 0.0741806 12.7809C-0.109931 13.1843 0.0580304 13.6641 0.450478 13.8533L6.75064 16.8962C6.85885 16.9477 6.9719 16.9726 7.08333 16.9726C7.37726 16.9726 7.65989 16.8016 7.79394 16.5094C7.97805 16.106 7.81009 15.6263 7.41764 15.437H7.41925Z" fill="#5ADCD4"/>
<path d="M19.4399 4.16031C19.0281 4.02252 18.5856 4.25493 18.4515 4.67825L16.3003 11.4845C16.1663 11.9078 16.3924 12.3627 16.8042 12.5005C16.885 12.527 16.9657 12.5403 17.0465 12.5403C17.3776 12.5403 17.6844 12.3245 17.7926 11.9825L19.9438 5.17627C20.0779 4.75295 19.8518 4.29809 19.4399 4.16031Z" fill="#5ADCD4"/>
<path d="M8.43357 4.28977C8.26076 3.88139 7.79887 3.69381 7.40158 3.86977C7.00429 4.0474 6.82179 4.52218 6.99298 4.93055L10.5573 13.3903C10.6849 13.694 10.974 13.8766 11.2776 13.8766C11.381 13.8766 11.4876 13.8551 11.5893 13.8102C11.9866 13.6326 12.1691 13.1578 11.9979 12.7495L8.43357 4.28977Z" fill="#5ADCD4"/>
</svg>
