<svg width="38" height="34" viewBox="0 0 38 34" fill="none" xmlns="http://www.w3.org/2000/svg">
<g clip-path="url(#clip0_425_2182)">
<path d="M20.487 3.65457C18.2839 5.97116 12.699 11.8448 12.699 11.8448L27.4797 25.4667C27.4797 25.4667 31.4466 21.2941 35.2677 17.2765C39.0888 13.2589 38.8776 6.95166 34.7956 3.18979C30.7147 -0.57207 24.3081 -0.364117 20.487 3.65457Z" fill="#E07AB1"/>
<path d="M26.8967 19.5859C27.9096 18.542 29.4716 18.3621 30.3862 19.1846C31.2998 20.006 31.2195 21.5188 30.2067 22.5628L22.2106 30.7987C19.7762 33.0945 18.606 33.4761 18.606 33.4761L18.7211 31.2001C17.8076 30.3787 17.8878 28.8658 18.9007 27.8219L26.8967 19.5859Z" fill="#E07AB1"/>
<path d="M21.4841 17.6675C22.497 16.6235 24.059 16.4437 24.9736 17.2661C25.8872 18.0875 25.8069 19.6004 24.7941 20.6433L16.798 28.8792C15.7852 29.9232 14.2221 30.103 13.3085 29.2806C12.395 28.4592 12.4752 26.9463 13.4881 25.9034L21.4841 17.6675Z" fill="#E07AB1"/>
<path d="M17.9819 13.7808C18.9948 12.7368 20.5568 12.5569 21.4714 13.3794C22.385 14.2008 22.3047 15.7137 21.2919 16.7576L13.2958 24.9936C12.283 26.0375 10.7209 26.2174 9.80632 25.3949C8.89276 24.5724 8.97303 23.0606 9.98587 22.0167L17.9819 13.7808Z" fill="#E07AB1"/>
<path d="M15.1177 9.23827C16.1305 8.19435 17.6936 8.01447 18.6072 8.83692C19.5207 9.65833 19.4405 11.1712 18.4276 12.2151L10.4316 20.4511C9.41872 21.495 7.85668 21.6749 6.94206 20.8524C6.0285 20.031 6.10877 18.5182 7.12161 17.4742L15.1177 9.23827Z" fill="#E07AB1"/>
<path d="M17.5129 3.6545C19.716 5.9711 25.3009 11.8447 25.3009 11.8447L10.5213 25.4677C10.5213 25.4677 6.5544 21.2951 2.73327 17.2775C-1.08785 13.2588 -0.876622 6.95263 3.20431 3.19077C7.2863 -0.571093 13.6918 -0.363141 17.5129 3.65554V3.6545Z" fill="#DC2A8A"/>
<path d="M11.0124 19.5328C10.0376 18.5076 8.51568 18.3517 7.61267 19.1835C6.70967 20.0153 6.76776 21.5209 7.74258 22.5461L15.4345 30.6354C16.4093 31.6606 17.9312 31.8166 18.8342 30.9848C19.7372 30.153 19.6791 28.6474 18.7043 27.6222L11.0113 19.5328H11.0124Z" fill="#DC2A8A"/>
<path d="M16.3206 17.5426C15.3458 16.5174 13.8239 16.3614 12.9209 17.1932C12.0179 18.0251 12.077 19.5306 13.0508 20.5558L20.7437 28.6452C21.7186 29.6704 23.2405 29.8264 24.1435 28.9946C25.0465 28.1627 24.9884 26.6572 24.0136 25.632L16.3206 17.5426Z" fill="#DC2A8A"/>
<path d="M19.79 13.6193C18.8152 12.5941 17.2933 12.4381 16.3903 13.2699C15.4873 14.1017 15.5453 15.6073 16.5202 16.6325L24.2131 24.7219C25.1879 25.7471 26.7098 25.903 27.6128 25.0712C28.5158 24.2394 28.4577 22.7338 27.4829 21.7086L19.79 13.6193Z" fill="#DC2A8A"/>
<path d="M22.6457 9.05286C21.6709 8.02765 20.149 7.87169 19.246 8.7035C18.343 9.53531 18.4011 11.0409 19.3759 12.0661L27.0688 20.1555C28.0436 21.1807 29.5655 21.3366 30.4685 20.5048C31.3715 19.673 31.3135 18.1674 30.3386 17.1422L22.6457 9.05286Z" fill="#DC2A8A"/>
<path d="M20.5862 4.14137C21.353 3.41042 22.6573 3.53935 23.4991 4.42939C24.3419 5.31942 24.4031 6.63368 23.6374 7.36464L17.59 13.1332C16.8243 13.8642 15.5199 13.7353 14.6771 12.8452C13.8343 11.9552 13.7731 10.6409 14.5388 9.90894L20.5862 4.14033V4.14137Z" fill="#E07AB1"/>
<path d="M18.8267 26.4805C19.2143 26.0126 20.2367 26.3307 21.1091 27.1906C21.9814 28.0505 22.3743 29.1267 21.9867 29.5935L18.9239 33.2836C18.5352 33.7515 17.514 33.4334 16.6405 32.5735C15.7681 31.7136 15.3753 30.6374 15.7629 30.1695L18.8257 26.4805H18.8267Z" fill="#E07AB1"/>
<path d="M16.2984 22.2153C16.8423 21.6039 17.9998 21.7973 18.8828 22.6478C19.7657 23.4984 20.0403 24.6837 19.4953 25.2951L15.199 30.1216C14.654 30.733 13.4975 30.5396 12.6146 29.6891C11.7316 28.8386 11.457 27.6533 12.002 27.0419L16.2984 22.2153Z" fill="#E07AB1"/>
<path d="M12.8299 19.142C13.3738 18.5307 14.5313 18.7241 15.4143 19.5746C16.2972 20.4251 16.5718 21.6104 16.0268 22.2218L11.7305 27.0484C11.1865 27.6598 10.029 27.4664 9.14607 26.6159C8.26314 25.7653 7.98854 24.58 8.53351 23.9686L12.8299 19.142Z" fill="#E07AB1"/>
<path d="M8.57373 16.4894C8.9983 15.9882 10.0523 16.2762 10.9279 17.1351C11.8024 17.9929 12.1678 19.094 11.7432 19.5962L8.38996 23.5535C7.96539 24.0547 6.91136 23.7667 6.03582 22.9089C5.16133 22.0511 4.7959 20.9499 5.22047 20.4477L8.57373 16.4904V16.4894Z" fill="#E07AB1"/>
</g>
<defs>
<clipPath id="clip0_425_2182">
<rect width="38" height="33" fill="white" transform="translate(0 0.5)"/>
</clipPath>
</defs>
</svg>
