<svg width="121" height="38" viewBox="0 0 121 38" fill="none" xmlns="http://www.w3.org/2000/svg">
<g clip-path="url(#clip0_902_2)">
<path d="M18.6201 22.2614C18.6201 17.7063 21.4811 13.9994 26.6371 13.9994C31.793 13.9994 34.0566 17.078 34.0566 21.1305C34.0566 22.1672 33.8995 22.9839 33.8995 22.9839H22.4557C22.6757 25.6542 24.1534 27.3505 26.9829 27.3505C30.2525 27.3505 30.9756 25.6542 30.9756 25.6542H33.7423V27.7275C33.7423 27.7275 32.1703 30.5234 26.9514 30.5234C21.4182 30.5234 18.6201 27.0364 18.6201 22.2614ZM30.3468 20.4079C30.3468 18.5859 29.1522 17.1408 26.6371 17.1408C24.1219 17.1408 22.9901 18.4917 22.5814 20.4079H30.3468Z" fill="white"/>
<path d="M37.5466 14.3764H41.0364L41.3193 16.7639C42.4511 15.0675 44.3375 13.9994 46.7268 13.9994C51.2855 13.9994 53.9578 17.6749 53.9578 22.23C53.9578 26.7851 51.2226 30.5234 46.7268 30.5234C44.3375 30.5234 42.514 29.4867 41.3507 27.8217V38H37.5466V14.3764ZM50.1222 22.23C50.1222 19.5283 48.676 17.3293 45.7522 17.3293C43.0485 17.3293 41.3507 19.4969 41.3507 22.23C41.3507 24.963 43.0485 27.1935 45.7522 27.1935C48.676 27.1935 50.1222 24.963 50.1222 22.23Z" fill="white"/>
<path d="M56.5039 22.2614C56.5039 17.7063 59.3649 13.9994 64.5208 13.9994C69.6768 13.9994 71.9404 17.078 71.9404 21.1305C71.9404 22.1672 71.7832 22.9839 71.7832 22.9839H60.3395C60.5595 25.6542 62.0372 27.3505 64.8667 27.3505C68.1363 27.3505 68.8594 25.6542 68.8594 25.6542H71.626V27.7275C71.626 27.7275 70.0541 30.5234 64.8352 30.5234C59.302 30.5234 56.5039 27.0364 56.5039 22.2614ZM68.2306 20.4079C68.2306 18.5859 67.036 17.1408 64.5208 17.1408C62.0057 17.1408 60.8739 18.4917 60.4652 20.4079H68.2306Z" fill="white"/>
<path d="M74.9561 25.6227C74.9561 22.8269 76.9367 20.8477 81.5268 20.8477C83.3503 20.8477 84.8279 21.2247 84.8279 21.2247V20.3765C84.8279 18.2718 83.9162 17.2037 81.7783 17.2037C79.3889 17.2037 78.5715 18.9001 78.5715 18.9001H75.8678V16.8267C75.8678 16.8267 77.314 13.9994 81.8726 13.9994C86.4313 13.9994 88.6634 16.1984 88.6634 20.4708V30.1464H85.3938L85.048 27.9788C84.262 29.1726 82.7844 30.5234 80.2378 30.5234C76.7166 30.5234 74.9561 28.3244 74.9561 25.6227ZM84.8307 24.4918V23.7379C84.8307 23.7379 83.5103 23.3609 81.6554 23.3609C79.3918 23.3609 78.7316 24.3662 78.7316 25.4343C78.7316 26.8793 79.6119 27.5076 81.1838 27.5076C83.5417 27.5076 84.8307 25.8112 84.8307 24.4918Z" fill="white"/>
<path d="M93.8511 24.7117V17.5492H91.3674V14.3764H93.9454L94.1655 10.4182H97.6552V14.3764H103.88V17.5492H97.6552V24.4604C97.6552 26.2824 98.2526 27.3191 99.8874 27.3191C101.522 27.3191 101.774 26.0939 101.774 25.9369H104.415V28.0416C103.817 29.204 102.497 30.5234 99.7302 30.5234C95.8946 30.5234 93.8511 28.4186 93.8511 24.7117Z" fill="white"/>
<path d="M107.432 27.6018V25.5285H110.136C110.168 25.717 111.236 27.5076 114.003 27.5076C116.078 27.5076 116.77 26.8165 116.77 25.7798C116.77 24.4918 115.481 24.1777 113.783 23.8321L111.96 23.4866C109.57 23.0782 107.715 21.7902 107.715 18.9315C107.715 16.2298 109.853 13.9994 113.689 13.9994C117.178 13.9994 118.845 15.3502 119.505 16.7325V18.8058H116.833C116.801 18.6487 116.047 16.9838 113.657 16.9838C111.897 16.9838 111.236 17.7377 111.236 18.743C111.236 19.7482 112.18 20.2823 113.594 20.565L115.418 20.9106C117.996 21.3818 120.259 22.4185 120.259 25.4028C120.259 28.3872 118.09 30.5234 114.003 30.5234C109.319 30.5234 107.621 28.0416 107.432 27.6018Z" fill="white"/>
<path d="M12.195 19.2085H7.82217L13.3897 30.1464H18.0198L12.195 19.2085ZM0.0510254 21.0477V30.1464H4.30386V21.0477H0.0510254Z" fill="white"/>
<path d="M15.2964 9.56425V14.3649C15.2964 15.8557 14.0874 17.0609 12.5983 17.0609H3.83545" stroke="white" stroke-width="5.66894" stroke-miterlimit="10"/>
<path d="M0.0771484 17.1922L4.28997 12.9741V21.0705L0.0771484 17.1922Z" fill="white"/>
<path d="M2.14355 12.9741V7.82503C2.14355 6.33428 3.35253 5.1291 4.84159 5.1291C46.6268 9.37862 84.4708 9.80699 117.039 5.1291" stroke="white" stroke-width="5.66894" stroke-miterlimit="10"/>
<path d="M121 4.44086L116.099 11.195L114.324 0L121 4.44086Z" fill="white"/>
</g>
<defs>
<clipPath id="clip0_902_2">
<rect width="121" height="38" fill="white"/>
</clipPath>
</defs>
</svg>
