<svg width="590" height="449" viewBox="0 0 590 449" fill="none" xmlns="http://www.w3.org/2000/svg">
<path d="M538.499 60.4308C538.814 63.5633 538.863 65.4511 539.109 67.6985C539.4 70.3505 539.622 72.8814 539.313 74.2298C539.515 74.6827 539.723 75.1149 540.68 75.7684C542.233 76.8299 543.877 76.4357 544.244 76.3389C544.244 76.3389 544.962 62.3497 545.323 57.523C545.725 52.1223 546.921 40.4774 546.921 40.4774C548.475 37.0475 539.067 35.9826 537.046 37.6214C536.137 38.3614 536.182 39.5542 537.372 50.0962C537.739 53.3532 538.072 56.2403 538.495 60.4273L538.499 60.4308Z" fill="#FFD3AB"/>
<path d="M546.044 64.8951C546.36 68.0277 546.408 69.9155 546.654 72.1629C546.946 74.8148 547.167 77.3457 546.859 78.6942C547.06 79.1471 547.268 79.5793 548.225 80.2328C549.779 81.2942 551.422 80.9001 551.79 80.8033C551.79 80.8033 552.508 66.8141 552.868 61.9874C553.27 56.5867 554.467 44.9417 554.467 44.9417C556.02 41.5119 546.613 40.4469 544.591 42.0858C543.683 42.8257 543.728 44.0186 544.917 54.5606C545.285 57.8176 545.617 60.7046 546.041 64.8917L546.044 64.8951Z" fill="#FFD3AB"/>
<path d="M544.154 77.8989C543.613 78.02 542.469 78.1997 541.134 77.7848C540.208 77.4944 539.549 77.0311 539.161 76.7061C539.213 75.368 539.261 74.03 539.313 72.6919C539.542 72.8786 540.874 73.9332 542.625 73.6393C543.433 73.5044 544.095 73.1345 544.425 72.8821C544.362 74.5555 544.22 76.2255 544.158 77.8989H544.154Z" fill="white"/>
<path d="M539.178 76.2734C538.356 77.2554 536.616 78.0575 534.802 79.1916C532.281 80.7648 532.032 80.5193 532 81.4459C531.973 82.2826 533.571 83.109 534.806 83.3821C538.62 84.2223 540.857 81.3595 541.006 81.2246C541.578 80.9584 542.455 80.7509 543.211 80.5193C543.721 80.3637 544.085 79.9073 544.106 79.3748C544.133 78.7421 544.192 78.1128 544.172 77.4697C543.96 77.5804 542.299 78.2961 540.652 77.6011C539.417 77.0825 539.331 76.5708 539.178 76.2734Z" fill="#DC2A8A"/>
<path d="M551.7 82.3623C551.159 82.4833 550.014 82.6631 548.679 82.2482C547.754 81.9578 547.095 81.4945 546.706 81.1695C546.758 79.8314 546.807 78.4933 546.859 77.1553C547.147 77.3766 548.308 78.2237 549.917 78.0681C550.86 77.9782 551.62 77.5806 551.967 77.3454C551.904 79.0189 551.762 80.6889 551.7 82.3623Z" fill="white"/>
<path d="M546.724 80.7373C545.902 81.7192 544.161 82.5214 542.348 83.6555C539.83 85.2286 539.577 84.9832 539.549 85.9098C539.521 86.7465 541.12 87.5728 542.354 87.846C546.169 88.6862 548.405 85.8233 548.554 85.6885C549.127 85.4223 550.004 85.2148 550.76 84.9832C551.27 84.8276 551.634 84.3712 551.654 83.8387C551.682 83.206 551.741 82.5767 551.72 81.9336C551.509 82.0443 549.848 82.76 548.201 82.065C546.966 81.5464 546.88 81.0347 546.727 80.7373H546.724Z" fill="#DC2A8A"/>
<path d="M536.487 36.8677L537.24 65.1503C537.24 65.1503 538.446 67.1591 543.683 68.8602C549.862 70.8656 550.198 70.5199 553.062 70.1222C554.165 59.3658 558.125 53.0074 554.987 40.7885L536.487 36.8677Z" fill="#4D4D4D"/>
<path d="M199.279 242.31L187.732 242.31L193.506 252.31L199.279 242.31ZM158.21 267.176L191.985 247.676L190.985 245.944L157.21 265.444L158.21 267.176Z" fill="#5ADCD4"/>
<path d="M191.902 320L203.449 320L197.675 310L191.902 320ZM200.196 316.366L233.971 296.866L232.971 295.134L199.196 314.634L200.196 316.366Z" fill="#5ADCD4"/>
<path d="M483.902 152L495.449 152L489.675 142L483.902 152ZM492.196 148.366L525.971 128.866L524.971 127.134L491.196 146.634L492.196 148.366Z" fill="#5ADCD4"/>
<path d="M99.3776 299.663L87.8306 299.663L93.6041 309.663L99.3776 299.663ZM58.3083 324.529L92.0833 305.029L91.0833 303.297L57.3083 322.797L58.3083 324.529Z" fill="#5ADCD4"/>
<path d="M385 208.353L396.547 208.353L390.774 198.353L385 208.353ZM393.294 204.719L427.069 185.219L426.069 183.487L392.294 202.987L393.294 204.719Z" fill="#5ADCD4"/>
<circle cx="298" cy="223" r="77" fill="white" stroke="#5ADCD4" stroke-width="2"/>
<g clip-path="url(#clip0_486_8579)">
<path d="M57.8801 400.806L58 340.688L36.5664 356.127L36.6597 416.965C37.2191 416.965 37.7786 416.791 38.2582 416.472L56.7212 403.99C57.3073 403.59 57.6803 403.031 57.8535 402.418H57.8668V402.378C58.0133 401.872 58.0133 401.326 57.8668 400.819L57.8801 400.806Z" fill="url(#paint0_linear_486_8579)"/>
<path d="M23.9912 320.826L6.56726 332.602C4.84884 333.761 4.87548 336.305 6.62054 337.424L34.9545 355.661C35.9269 356.287 37.1791 356.273 38.1382 355.621L56.6013 343.139C58.3197 341.98 58.293 339.436 56.548 338.317L29.2797 320.759C27.6679 319.72 25.5898 319.747 23.9912 320.826Z" fill="#D8FFE7"/>
<path d="M36.6596 386.286L36.6063 386.259L36.553 356.127L5.30176 335.053L5.42165 396.29L5.48825 396.33C5.62146 397.09 6.03442 397.796 6.75376 398.262L35.0877 416.498C35.5673 416.805 36.1134 416.951 36.6596 416.951V386.273V386.286Z" fill="url(#paint1_linear_486_8579)"/>
<path d="M25.0968 410.011L12.8281 402.098V386.02L25.0968 393.946V410.011Z" fill="#FFFFDB"/>
<path d="M14.0006 354.901L10.3506 352.304V348.654L14.0006 351.251V354.901Z" fill="#FFFFDB"/>
<path d="M19.6754 359.257L16.0254 356.647V352.997L19.6754 355.608V359.257Z" fill="#FFFFDB"/>
<path d="M25.3502 363.027L21.7002 360.429V356.779L25.3502 359.377V363.027Z" fill="#FFFFDB"/>
<path d="M31.025 366.944L27.375 364.333V360.683L31.025 363.294V366.944Z" fill="#FFFFDB"/>
<path d="M39.6702 365.825L43.3068 363.214V359.578L39.6702 362.175V365.825Z" fill="#FFFFDB"/>
<path d="M45.718 361.416L49.368 358.818V355.168L45.718 357.779V361.416Z" fill="#FFFFDB"/>
<path d="M51.7659 357.619L55.4158 355.008V351.372L51.7659 353.969V357.619Z" fill="#FFFFDB"/>
<path d="M39.6702 373.511L43.3068 370.9V367.25L39.6702 369.861V373.511Z" fill="#FFFFDB"/>
<path d="M45.718 369.102L49.368 366.491V362.841L45.718 365.452V369.102Z" fill="#FFFFDB"/>
<path d="M51.7659 365.305L55.4158 362.694V359.044L51.7659 361.655V365.305Z" fill="#FFFFDB"/>
<path d="M39.6702 382.09L43.3068 379.479V375.829L39.6702 378.44V382.09Z" fill="#FFFFDB"/>
<path d="M45.718 377.68L49.368 375.069V371.433L45.718 374.03V377.68Z" fill="#FFFFDB"/>
<path d="M51.7659 373.884L55.4158 371.273V367.623L51.7659 370.234V373.884Z" fill="#FFFFDB"/>
<path d="M39.6702 390.602L43.3068 387.991V384.341L39.6702 386.952V390.602Z" fill="#FFFFDB"/>
<path d="M45.718 386.193L49.368 383.582V379.932L45.718 382.543V386.193Z" fill="#FFFFDB"/>
<path d="M51.7659 382.396L55.4158 379.785V376.135L51.7659 378.746V382.396Z" fill="#FFFFDB"/>
<path d="M14.0006 362.375L10.3506 359.777V356.127L14.0006 358.725V362.375Z" fill="#FFFFDB"/>
<path d="M19.6754 366.717L16.0254 364.119V360.469L19.6754 363.067V366.717Z" fill="#FFFFDB"/>
<path d="M25.3502 370.501L21.7002 367.89V364.253L25.3502 366.851V370.501Z" fill="#FFFFDB"/>
<path d="M31.025 374.417L27.375 371.806V368.156L31.025 370.767V374.417Z" fill="#FFFFDB"/>
<path d="M14.0006 369.341L10.3506 366.73V363.08L14.0006 365.691V369.341Z" fill="#FFFFDB"/>
<path d="M19.6754 373.683L16.0254 371.072V367.422L19.6754 370.033V373.683Z" fill="#FFFFDB"/>
<path d="M25.3502 377.454L21.7002 374.856V371.206L25.3502 373.817V377.454Z" fill="#FFFFDB"/>
<path d="M31.025 381.37L27.375 378.759V375.109L31.025 377.72V381.37Z" fill="#FFFFDB"/>
<path d="M14.0006 376.375L10.3506 373.777V370.127L14.0006 372.725V376.375Z" fill="#FFFFDB"/>
<path d="M19.6754 380.717L16.0254 378.119V374.469L19.6754 377.08V380.717Z" fill="#FFFFDB"/>
<path d="M25.3502 384.501L21.7002 381.903V378.253L25.3502 380.851V384.501Z" fill="#FFFFDB"/>
<path d="M31.025 388.417L27.375 385.806V382.156L31.025 384.767V388.417Z" fill="#FFFFDB"/>
<path d="M31.2646 399.314L36.6996 394.851L5.44832 374.856L0 379.292" fill="#DC2A8A"/>
<path d="M1.35875 380.158L0 379.292L0.0666054 381.584C0.0666054 381.584 0.0666054 381.597 0.0666054 381.61C0.0799265 382.09 0.399632 382.676 0.772623 382.916C1.14561 383.156 1.43868 382.956 1.42536 382.476C1.42536 382.476 1.42536 382.463 1.42536 382.45L1.35875 380.158Z" fill="#DC66AF"/>
<path d="M2.71764 381.024L1.35889 380.158L1.42549 382.449C1.42549 382.449 1.42549 382.463 1.42549 382.476C1.43881 382.956 1.75852 383.542 2.13151 383.782C2.5045 384.021 2.79756 383.822 2.78424 383.342C2.78424 383.342 2.78424 383.329 2.78424 383.315L2.71764 381.024Z" fill="#DC66AF"/>
<path d="M4.07628 381.903L2.71753 381.038L2.78413 383.329C2.78413 383.329 2.78413 383.342 2.78413 383.355C2.79746 383.835 3.11716 384.421 3.49015 384.661C3.86314 384.901 4.15621 384.701 4.14289 384.221C4.14289 384.221 4.14289 384.208 4.14289 384.195L4.07628 381.903Z" fill="#DC66AF"/>
<path d="M5.43517 382.769L4.07642 381.903L4.14302 384.195C4.14302 384.195 4.14302 384.208 4.14302 384.221C4.15634 384.701 4.47605 385.287 4.84904 385.527C5.22203 385.766 5.51509 385.567 5.50177 385.087C5.50177 385.087 5.50177 385.074 5.50177 385.06L5.43517 382.769Z" fill="#DC66AF"/>
<path d="M6.79381 383.635L5.43506 382.769L5.50166 385.06C5.50166 385.06 5.50166 385.074 5.50166 385.087C5.51499 385.566 5.83469 386.153 6.20768 386.392C6.58067 386.632 6.87374 386.432 6.86041 385.953C6.86041 385.953 6.86041 385.939 6.86041 385.926L6.79381 383.635Z" fill="#DC66AF"/>
<path d="M8.1527 384.501L6.79395 383.635L6.86055 385.926C6.86055 385.926 6.86055 385.939 6.86055 385.953C6.87387 386.432 7.19358 387.018 7.56657 387.258C7.93956 387.498 8.23262 387.298 8.2193 386.819C8.2193 386.819 8.2193 386.805 8.2193 386.792L8.1527 384.501Z" fill="#DC66AF"/>
<path d="M27.1881 396.703L25.8293 395.837L25.896 398.129C25.896 398.129 25.896 398.142 25.896 398.155C25.9093 398.635 26.229 399.221 26.602 399.461C26.975 399.701 27.268 399.501 27.2547 399.021C27.2547 399.021 27.2547 399.008 27.2547 398.994L27.1881 396.703Z" fill="#DC66AF"/>
<path d="M9.51134 385.38L8.15259 384.514L8.21919 386.805C8.21919 386.805 8.21919 386.819 8.21919 386.832C8.23251 387.312 8.55222 387.898 8.92521 388.137C9.2982 388.377 9.59127 388.177 9.57794 387.698C9.57794 387.698 9.57794 387.685 9.57794 387.671L9.51134 385.38Z" fill="#DC66AF"/>
<path d="M10.87 386.246L9.51123 385.38L9.57784 387.671C9.57784 387.671 9.57784 387.684 9.57784 387.698C9.59116 388.177 9.91086 388.763 10.2839 389.003C10.6568 389.243 10.9499 389.043 10.9366 388.564C10.9366 388.564 10.9366 388.55 10.9366 388.537L10.87 386.246Z" fill="#DC66AF"/>
<path d="M12.2421 387.112L10.8833 386.247L10.9499 388.538C10.9499 388.538 10.9499 388.551 10.9499 388.564C10.9632 389.044 11.2829 389.63 11.6559 389.87C12.0289 390.11 12.322 389.91 12.3087 389.43C12.3087 389.43 12.3087 389.417 12.3087 389.404L12.2421 387.112Z" fill="#DC66AF"/>
<path d="M13.6007 387.978L12.2419 387.112L12.3085 389.404C12.3085 389.404 12.3085 389.417 12.3085 389.43C12.3219 389.91 12.6416 390.496 13.0146 390.736C13.3876 390.975 13.6806 390.776 13.6673 390.296C13.6673 390.296 13.6673 390.283 13.6673 390.269L13.6007 387.978Z" fill="#DC66AF"/>
<path d="M14.9596 388.857L13.6008 387.991L13.6674 390.282C13.6674 390.282 13.6674 390.295 13.6674 390.309C13.6808 390.788 14.0005 391.374 14.3735 391.614C14.7464 391.854 15.0395 391.654 15.0262 391.174C15.0262 391.174 15.0262 391.161 15.0262 391.148L14.9596 388.857Z" fill="#DC66AF"/>
<path d="M16.3182 389.723L14.9595 388.857L15.0261 391.149C15.0261 391.149 15.0261 391.162 15.0261 391.175C15.0394 391.655 15.3591 392.241 15.7321 392.481C16.1051 392.721 16.3982 392.521 16.3848 392.041C16.3848 392.041 16.3848 392.028 16.3848 392.015L16.3182 389.723Z" fill="#DC66AF"/>
<path d="M17.6771 390.589L16.3184 389.723L16.385 392.014C16.385 392.014 16.385 392.028 16.385 392.041C16.3983 392.521 16.718 393.107 17.091 393.346C17.464 393.586 17.757 393.386 17.7437 392.907C17.7437 392.907 17.7437 392.894 17.7437 392.88L17.6771 390.589Z" fill="#DC66AF"/>
<path d="M19.0358 391.455L17.677 390.589L17.7436 392.88C17.7436 392.88 17.7436 392.893 17.7436 392.907C17.7569 393.386 18.0766 393.972 18.4496 394.212C18.8226 394.452 19.1157 394.252 19.1024 393.773C19.1024 393.773 19.1024 393.759 19.1024 393.746L19.0358 391.455Z" fill="#DC66AF"/>
<path d="M20.3812 392.361L19.0225 391.495L19.0891 393.786C19.0891 393.786 19.0891 393.799 19.0891 393.812C19.1024 394.292 19.4221 394.878 19.7951 395.118C20.1681 395.358 20.4611 395.158 20.4478 394.678C20.4478 394.678 20.4478 394.665 20.4478 394.652L20.3812 392.361Z" fill="#DC66AF"/>
<path d="M21.7401 393.226L20.3813 392.36L20.448 394.652C20.448 394.652 20.448 394.665 20.448 394.678C20.4613 395.158 20.781 395.744 21.154 395.984C21.527 396.223 21.82 396.024 21.8067 395.544C21.8067 395.544 21.8067 395.531 21.8067 395.517L21.7401 393.226Z" fill="#DC66AF"/>
<path d="M23.0987 394.092L21.74 393.226L21.8066 395.517C21.8066 395.517 21.8066 395.531 21.8066 395.544C21.8199 396.023 22.1396 396.61 22.5126 396.849C22.8856 397.089 23.1787 396.889 23.1653 396.41C23.1653 396.41 23.1653 396.396 23.1653 396.383L23.0987 394.092Z" fill="#DC66AF"/>
<path d="M24.4711 394.958L23.1123 394.092L23.1789 396.383C23.1789 396.383 23.1789 396.396 23.1789 396.41C23.1922 396.889 23.5119 397.475 23.8849 397.715C24.2579 397.955 24.551 397.755 24.5377 397.276C24.5377 397.276 24.5377 397.262 24.5377 397.249L24.4711 394.958Z" fill="#DC66AF"/>
<path d="M25.8297 395.837L24.4709 394.971L24.5376 397.262C24.5376 397.262 24.5376 397.276 24.5376 397.289C24.5509 397.769 24.8706 398.355 25.2436 398.595C25.6166 398.834 25.9096 398.634 25.8963 398.155C25.8963 398.155 25.8963 398.142 25.8963 398.128L25.8297 395.837Z" fill="#DC66AF"/>
<path d="M27.1881 396.703L25.8293 395.837L25.896 398.129C25.896 398.129 25.896 398.142 25.896 398.155C25.9093 398.635 26.229 399.221 26.602 399.461C26.975 399.701 27.268 399.501 27.2547 399.021C27.2547 399.021 27.2547 399.008 27.2547 398.994L27.1881 396.703Z" fill="#DC66AF"/>
<path d="M28.547 397.569L27.1882 396.703L27.2548 398.994C27.2548 398.994 27.2548 399.008 27.2548 399.021C27.2682 399.501 27.5879 400.087 27.9609 400.326C28.3338 400.566 28.6269 400.366 28.6136 399.887C28.6136 399.887 28.6136 399.874 28.6136 399.86L28.547 397.569Z" fill="#DC66AF"/>
<path d="M29.9056 398.435L28.5469 397.569L28.6135 399.861C28.6135 399.861 28.6135 399.874 28.6135 399.887C28.6268 400.367 28.9465 400.953 29.3195 401.193C29.6925 401.432 29.9856 401.233 29.9722 400.753C29.9722 400.753 29.9722 400.74 29.9722 400.726L29.9056 398.435Z" fill="#DC66AF"/>
<path d="M31.2645 399.314L29.9058 398.448L29.9724 400.739C29.9724 400.739 29.9724 400.753 29.9724 400.766C29.9857 401.246 30.3054 401.832 30.6784 402.072C31.0514 402.311 31.3444 402.112 31.3311 401.632C31.3311 401.632 31.3311 401.619 31.3311 401.605L31.2645 399.314Z" fill="#DC66AF"/>
</g>
<g clip-path="url(#clip1_486_8579)">
<g style="mix-blend-mode:multiply" opacity="0.99">
<path d="M471.398 150H439.602C438.717 150 438 150.718 438 151.604V192.396C438 193.282 438.717 194 439.602 194H471.398C472.283 194 473 193.282 473 192.396V151.604C473 150.718 472.283 150 471.398 150Z" fill="#DC2A8A"/>
</g>
<path opacity="0.99" d="M467.674 154.163H443.326C442.442 154.163 441.724 154.881 441.724 155.767V188.226C441.724 189.112 442.442 189.83 443.326 189.83H467.674C468.558 189.83 469.276 189.112 469.276 188.226V155.767C469.276 154.881 468.558 154.163 467.674 154.163Z" fill="white" stroke="#DC2A8A" stroke-width="1.17806" stroke-miterlimit="10"/>
<g style="mix-blend-mode:multiply" opacity="0.99">
<path d="M460.414 151.489H451.33C450.96 151.489 450.66 151.789 450.66 152.159V154.549C450.66 154.919 450.96 155.219 451.33 155.219H460.414C460.784 155.219 461.083 154.919 461.083 154.549V152.159C461.083 151.789 460.784 151.489 460.414 151.489Z" fill="#DC2A8A"/>
</g>
<g style="mix-blend-mode:multiply" opacity="0.99">
<path d="M448.051 162.306H446.571C446.156 162.306 445.821 162.643 445.821 163.058V164.54C445.821 164.955 446.156 165.291 446.571 165.291H448.051C448.466 165.291 448.801 164.955 448.801 164.54V163.058C448.801 162.643 448.466 162.306 448.051 162.306Z" stroke="#DC2A8A" stroke-width="1.17806" stroke-miterlimit="10"/>
</g>
<path opacity="0.99" d="M450.66 165.285H465.551" stroke="#DC2A8A" stroke-width="1.17806" stroke-miterlimit="10"/>
<path opacity="0.99" d="M449.917 161.934L447.294 164.479L445.8 162.78" stroke="#4F006B" stroke-width="1.17806" stroke-miterlimit="10"/>
<g style="mix-blend-mode:multiply" opacity="0.99">
<path d="M448.051 169.759H446.571C446.156 169.759 445.821 170.096 445.821 170.511V171.993C445.821 172.408 446.156 172.745 446.571 172.745H448.051C448.466 172.745 448.801 172.408 448.801 171.993V170.511C448.801 170.096 448.466 169.759 448.051 169.759Z" stroke="#DC2A8A" stroke-width="1.17806" stroke-miterlimit="10"/>
</g>
<path opacity="0.99" d="M450.66 172.745H465.551" stroke="#DC2A8A" stroke-width="1.17806" stroke-miterlimit="10"/>
<path opacity="0.99" d="M449.917 169.387L447.294 171.939L445.8 170.24" stroke="#4F006B" stroke-width="1.17806" stroke-miterlimit="10"/>
<g style="mix-blend-mode:multiply" opacity="0.99">
<path d="M448.051 177.963H446.571C446.156 177.963 445.821 178.3 445.821 178.715V180.197C445.821 180.612 446.156 180.949 446.571 180.949H448.051C448.466 180.949 448.801 180.612 448.801 180.197V178.715C448.801 178.3 448.466 177.963 448.051 177.963Z" stroke="#DC2A8A" stroke-width="1.17806" stroke-miterlimit="10"/>
</g>
<path opacity="0.99" d="M450.66 180.949H465.551" stroke="#DC2A8A" stroke-width="1.17806" stroke-miterlimit="10"/>
<path opacity="0.99" d="M449.917 177.591L447.294 180.143L445.8 178.444" stroke="#4F006B" stroke-width="1.17806" stroke-miterlimit="10"/>
</g>
<path d="M486.41 197.578C486.312 197.718 486.102 198.068 486.004 198.306C485.514 199.454 484.688 201.036 483.708 202.296C485.15 203.528 486.844 205.334 487.712 206.398L486.48 207.49C485.556 206.23 484.156 204.69 482.77 203.402C481.272 204.998 479.382 206.496 477.38 207.434L476.246 206.244C478.514 205.376 480.614 203.696 482 202.142C482.952 201.078 483.89 199.538 484.226 198.446H479.088C478.542 198.446 477.786 198.516 477.562 198.53V196.948C477.842 196.99 478.654 197.046 479.088 197.046H484.282C484.8 197.046 485.262 196.99 485.5 196.906L486.41 197.578ZM494.32 197.06C494.236 196.682 494.152 196.36 494.04 196.052L495.608 195.8C495.65 196.066 495.692 196.5 495.762 196.808C495.79 196.976 495.888 197.508 496.028 198.236C497.302 198.026 498.492 197.83 499.038 197.718C499.472 197.634 499.906 197.536 500.186 197.452L500.452 198.922C500.2 198.95 499.724 199.02 499.332 199.076C498.716 199.174 497.54 199.356 496.28 199.552C496.434 200.35 496.602 201.246 496.77 202.114C498.128 201.89 499.374 201.68 500.046 201.554C500.578 201.442 501.04 201.344 501.362 201.246L501.656 202.716C501.334 202.744 500.83 202.842 500.298 202.926C499.57 203.038 498.338 203.234 497.036 203.444C497.288 204.704 497.484 205.754 497.568 206.132C497.666 206.538 497.792 207.028 497.932 207.448L496.322 207.742C496.252 207.238 496.21 206.79 496.126 206.37C496.07 206.02 495.86 204.97 495.622 203.668C494.096 203.92 492.682 204.158 492.024 204.284C491.45 204.382 491.03 204.466 490.722 204.55L490.4 203.052C490.75 203.038 491.338 202.968 491.73 202.912C492.416 202.814 493.844 202.59 495.356 202.352C495.188 201.484 495.02 200.588 494.866 199.776C493.578 199.986 492.416 200.182 491.926 200.266C491.506 200.336 491.17 200.406 490.722 200.518L490.428 198.978C490.82 198.95 491.212 198.922 491.646 198.88C492.164 198.824 493.326 198.656 494.6 198.46C494.46 197.76 494.362 197.256 494.32 197.06ZM510.21 206.692C510.266 206.454 510.308 206.132 510.308 205.81V197.522C510.308 196.948 510.224 196.486 510.224 196.402H511.848C511.834 196.486 511.778 196.948 511.778 197.522V205.264C512.996 204.718 514.578 203.528 515.586 202.044L516.44 203.248C515.25 204.83 513.276 206.3 511.666 207.112C511.414 207.252 511.246 207.378 511.134 207.462L510.21 206.692ZM503.756 206.566C504.974 205.726 505.772 204.452 506.178 203.164C506.584 201.918 506.584 199.188 506.584 197.578C506.584 197.102 506.556 196.766 506.472 196.444H508.096C508.082 196.556 508.026 197.074 508.026 197.564C508.026 199.16 507.97 202.142 507.592 203.542C507.172 205.082 506.29 206.454 505.1 207.462L503.756 206.566ZM525.89 204.816H522.138C522.488 205.362 522.81 206.048 522.936 206.552L522.376 206.706H525.456L525.022 206.594C525.316 206.118 525.666 205.376 525.89 204.816ZM521.354 202.198V203.766H526.59V202.198H521.354ZM526.576 204.816L527.192 204.97C526.884 205.6 526.548 206.23 526.268 206.706H530.034V207.798H518.022V206.706H521.62C521.48 206.202 521.186 205.53 520.892 205.026L521.662 204.816H520.094V201.134H527.92V204.816H526.576ZM529.166 196.99L530.132 197.676C529.544 198.208 528.816 198.782 528.172 199.23C528.914 199.818 529.712 200.294 530.566 200.616C530.272 200.868 529.88 201.358 529.698 201.694C528.536 201.162 527.486 200.406 526.562 199.468V200.154H521.438V199.58C520.458 200.56 519.31 201.33 518.162 201.862C518.008 201.596 517.644 201.148 517.392 200.924C518.274 200.56 519.184 199.972 519.996 199.272C519.576 198.838 518.904 198.32 518.33 197.956L519.03 197.242C519.646 197.592 520.36 198.11 520.766 198.53C521.256 198.012 521.69 197.438 522.026 196.85H518.834V195.772H522.656L522.88 195.716L523.72 196.15C523.314 197.228 522.698 198.194 521.956 199.034H526.156C525.274 198.04 524.546 196.892 524 195.632L525.106 195.296C525.344 195.842 525.638 196.374 525.988 196.878C526.576 196.402 527.22 195.828 527.612 195.38L528.592 196.08C527.976 196.626 527.234 197.228 526.59 197.676C526.842 197.984 527.122 198.278 527.416 198.558C528.046 198.082 528.732 197.48 529.166 196.99ZM532.974 198.684H536.404C536.012 198.082 535.256 197.144 534.556 196.472C534.164 197.144 533.646 197.928 532.974 198.684ZM539.442 204.284L539.834 205.264C538.98 205.922 538.056 206.594 537.244 207.154L536.908 206.566L536.922 206.678C535.172 207.056 533.338 207.448 531.938 207.728L531.672 206.538C532.288 206.44 533.044 206.3 533.87 206.146V202.198H531.826V201.064H533.87V199.79H532.526V199.174C532.386 199.3 532.246 199.44 532.092 199.58C531.924 199.314 531.532 198.922 531.294 198.754C532.512 197.718 533.38 196.346 533.828 195.254H534.934C535.76 195.968 536.782 197.004 537.272 197.704L536.432 198.684H536.544V199.79H535.004V201.064H536.894V202.198H535.004V205.936L536.824 205.586L536.852 205.964C537.552 205.53 538.49 204.914 539.442 204.284ZM532.064 203.052L532.918 202.828C533.184 203.654 533.408 204.676 533.464 205.362L532.54 205.6C532.512 204.914 532.302 203.85 532.064 203.052ZM536.18 205.348L535.354 205.124C535.564 204.466 535.802 203.416 535.9 202.716L536.88 202.968C536.642 203.78 536.39 204.718 536.18 205.348ZM537.174 202.17L538.042 201.61C538.616 202.142 539.26 202.898 539.54 203.416L538.602 204.046C538.35 203.514 537.734 202.73 537.174 202.17ZM542.634 203.864L541.976 203.416C542.564 204.55 543.432 205.614 544.664 206.244C544.412 206.482 544.006 206.986 543.824 207.308C542.606 206.552 541.752 205.32 541.178 204.116V206.804C541.178 207.392 541.094 207.714 540.716 207.91C540.352 208.092 539.806 208.106 539.05 208.106C539.022 207.784 538.868 207.294 538.728 206.972C539.19 206.986 539.638 206.986 539.778 206.986C539.932 206.972 539.974 206.93 539.974 206.776V200.994H536.964V199.874H542.088V198.88H537.958V197.858H542.088V196.864H537.678V195.772H543.292V199.874H544.384V200.994H541.178V201.344C541.346 201.946 541.57 202.604 541.878 203.234C542.382 202.73 542.998 201.946 543.348 201.386L544.37 202.03C543.81 202.688 543.152 203.388 542.634 203.864Z" fill="#DC2A8A"/>
<g clip-path="url(#clip2_486_8579)">
<g style="mix-blend-mode:multiply" opacity="0.99">
<path d="M165.049 333.221C165.049 333.903 165.6 334.455 166.28 334.455H175.469L165.049 324V333.221Z" fill="#DC2A8A"/>
</g>
<g style="mix-blend-mode:multiply" opacity="0.99">
<path d="M165.049 324H148.231C147.551 324 147 324.553 147 325.235V359.55C147 360.232 147.551 360.785 148.231 360.785H174.239C174.918 360.785 175.469 360.232 175.469 359.55V334.455L165.049 324Z" fill="#DC2A8A"/>
</g>
<path opacity="0.99" d="M154.255 337.257H168.025" stroke="white" stroke-width="4.46595" stroke-miterlimit="10"/>
<path opacity="0.99" d="M154.255 342.484H168.025" stroke="white" stroke-width="4.46595" stroke-miterlimit="10"/>
<path opacity="0.99" d="M154.255 348.087H168.025" stroke="white" stroke-width="4.46595" stroke-miterlimit="10"/>
<g style="mix-blend-mode:multiply">
<path d="M189.857 350.028H172.102C170.919 350.028 169.959 350.991 169.959 352.178V363.85C169.959 365.038 170.919 366 172.102 366H189.857C191.041 366 192 365.038 192 363.85V352.178C192 350.991 191.041 350.028 189.857 350.028Z" fill="#DC2A8A"/>
</g>
<path d="M176.62 358.751C177.8 358.751 178.757 357.791 178.757 356.607C178.757 355.423 177.8 354.463 176.62 354.463C175.44 354.463 174.484 355.423 174.484 356.607C174.484 357.791 175.44 358.751 176.62 358.751Z" fill="white"/>
<path d="M172.965 361.54C172.965 359.317 174.625 357.517 176.669 357.517C178.714 357.517 180.373 359.317 180.373 361.54" fill="white"/>
<path d="M182.204 355.864H188.939" stroke="white" stroke-width="0.893189" stroke-miterlimit="10"/>
<path d="M182.204 358.321H188.939" stroke="white" stroke-width="0.893189" stroke-miterlimit="10"/>
<path d="M182.204 360.778H188.939" stroke="white" stroke-width="0.893189" stroke-miterlimit="10"/>
</g>
<path d="M209.41 360.578C209.312 360.718 209.102 361.068 209.004 361.306C208.514 362.454 207.688 364.036 206.708 365.296C208.15 366.528 209.844 368.334 210.712 369.398L209.48 370.49C208.556 369.23 207.156 367.69 205.77 366.402C204.272 367.998 202.382 369.496 200.38 370.434L199.246 369.244C201.514 368.376 203.614 366.696 205 365.142C205.952 364.078 206.89 362.538 207.226 361.446H202.088C201.542 361.446 200.786 361.516 200.562 361.53V359.948C200.842 359.99 201.654 360.046 202.088 360.046H207.282C207.8 360.046 208.262 359.99 208.5 359.906L209.41 360.578ZM217.32 360.06C217.236 359.682 217.152 359.36 217.04 359.052L218.608 358.8C218.65 359.066 218.692 359.5 218.762 359.808C218.79 359.976 218.888 360.508 219.028 361.236C220.302 361.026 221.492 360.83 222.038 360.718C222.472 360.634 222.906 360.536 223.186 360.452L223.452 361.922C223.2 361.95 222.724 362.02 222.332 362.076C221.716 362.174 220.54 362.356 219.28 362.552C219.434 363.35 219.602 364.246 219.77 365.114C221.128 364.89 222.374 364.68 223.046 364.554C223.578 364.442 224.04 364.344 224.362 364.246L224.656 365.716C224.334 365.744 223.83 365.842 223.298 365.926C222.57 366.038 221.338 366.234 220.036 366.444C220.288 367.704 220.484 368.754 220.568 369.132C220.666 369.538 220.792 370.028 220.932 370.448L219.322 370.742C219.252 370.238 219.21 369.79 219.126 369.37C219.07 369.02 218.86 367.97 218.622 366.668C217.096 366.92 215.682 367.158 215.024 367.284C214.45 367.382 214.03 367.466 213.722 367.55L213.4 366.052C213.75 366.038 214.338 365.968 214.73 365.912C215.416 365.814 216.844 365.59 218.356 365.352C218.188 364.484 218.02 363.588 217.866 362.776C216.578 362.986 215.416 363.182 214.926 363.266C214.506 363.336 214.17 363.406 213.722 363.518L213.428 361.978C213.82 361.95 214.212 361.922 214.646 361.88C215.164 361.824 216.326 361.656 217.6 361.46C217.46 360.76 217.362 360.256 217.32 360.06ZM233.21 369.692C233.266 369.454 233.308 369.132 233.308 368.81V360.522C233.308 359.948 233.224 359.486 233.224 359.402H234.848C234.834 359.486 234.778 359.948 234.778 360.522V368.264C235.996 367.718 237.578 366.528 238.586 365.044L239.44 366.248C238.25 367.83 236.276 369.3 234.666 370.112C234.414 370.252 234.246 370.378 234.134 370.462L233.21 369.692ZM226.756 369.566C227.974 368.726 228.772 367.452 229.178 366.164C229.584 364.918 229.584 362.188 229.584 360.578C229.584 360.102 229.556 359.766 229.472 359.444H231.096C231.082 359.556 231.026 360.074 231.026 360.564C231.026 362.16 230.97 365.142 230.592 366.542C230.172 368.082 229.29 369.454 228.1 370.462L226.756 369.566ZM252.656 360.606V369.51C252.656 370.28 252.474 370.672 251.956 370.882C251.438 371.106 250.57 371.12 249.338 371.12C249.282 370.756 249.072 370.154 248.89 369.804C249.8 369.846 250.752 369.846 251.018 369.832C251.284 369.818 251.368 369.748 251.368 369.496V361.866H247.672C247.644 362.412 247.574 362.986 247.448 363.588C248.736 364.75 250.346 366.29 251.158 367.284L250.094 368.138C249.45 367.284 248.204 365.968 247.042 364.848C246.496 366.122 245.516 367.354 243.794 368.362C243.626 368.082 243.178 367.62 242.87 367.382C245.782 365.842 246.258 363.658 246.328 361.866H242.688V371.134H241.386V360.606H246.342V358.254H247.686V360.606H252.656ZM256.436 360.634V362.174H255.162V359.458H260.3V358.254H261.63V359.458H266.838V362.174H265.522V360.634H256.436ZM262.036 361.88L262.96 361.124C264.178 361.852 265.76 362.944 266.53 363.728L265.564 364.61C264.836 363.826 263.296 362.664 262.036 361.88ZM258.592 361.138L259.838 361.558C258.942 362.776 257.542 363.952 256.268 364.694C256.086 364.414 255.624 363.896 255.358 363.658C256.576 363.07 257.85 362.118 258.592 361.138ZM258.41 366.402H263.814C262.708 365.632 261.7 364.778 261.028 363.966C260.426 364.75 259.502 365.618 258.41 366.402ZM258.424 369.524H263.59V367.55H258.424V369.524ZM260.314 362.748H261.63C263.1 364.554 265.382 366.094 267.51 366.864C267.202 367.2 266.908 367.676 266.698 368.054C266.124 367.788 265.508 367.466 264.906 367.102V371.064H263.59V370.672H258.424V371.106H257.164V367.242C256.604 367.578 256.002 367.9 255.414 368.18C255.26 367.872 254.938 367.368 254.672 367.088C256.996 366.108 259.25 364.288 260.314 362.748ZM274.272 359.024C274.202 359.318 274.132 359.682 274.076 359.99C273.992 360.424 273.866 361.096 273.74 361.754C274.314 361.698 274.818 361.67 275.14 361.67C276.498 361.67 277.52 362.216 277.52 364.176C277.52 365.828 277.31 368.082 276.722 369.258C276.274 370.224 275.546 370.476 274.566 370.476C274.034 370.476 273.362 370.392 272.9 370.28L272.676 368.824C273.236 368.992 274.006 369.104 274.384 369.104C274.888 369.104 275.28 368.978 275.532 368.432C275.952 367.564 276.162 365.786 276.162 364.33C276.162 363.126 275.616 362.916 274.734 362.916C274.44 362.916 273.978 362.944 273.446 363C272.928 365.058 271.934 368.292 270.548 370.532L269.106 369.958C270.506 368.068 271.514 365.044 272.018 363.14C271.374 363.21 270.8 363.28 270.478 363.322C270.128 363.364 269.484 363.448 269.092 363.518L268.952 362.006C269.428 362.034 269.834 362.02 270.31 362.006C270.758 361.992 271.514 361.936 272.312 361.866C272.508 360.83 272.648 359.766 272.634 358.856L274.272 359.024ZM279.102 360.438C279.97 361.6 281.16 364.218 281.608 365.534L280.222 366.178C279.83 364.694 278.78 362.188 277.8 360.998L279.102 360.438ZM286.676 358.898C287.936 359.29 290.946 359.85 292.178 359.976L291.856 361.334C290.484 361.152 287.404 360.508 286.326 360.228L286.676 358.898ZM286.55 361.558C286.354 362.44 286.116 364.358 285.99 365.212C287.292 364.148 288.776 363.658 290.358 363.658C292.64 363.658 294.068 365.044 294.068 366.71C294.068 369.23 291.94 371.05 286.466 370.588L286.046 369.146C290.372 369.692 292.556 368.53 292.556 366.682C292.556 365.646 291.59 364.904 290.246 364.904C288.524 364.904 287.04 365.562 286.116 366.682C285.878 366.948 285.752 367.186 285.64 367.424L284.352 367.116C284.632 365.8 284.968 362.944 285.066 361.362L286.55 361.558ZM307.564 360.368V359.612H304.736V358.744H308.698V361.25H306.08V361.768C306.08 362.048 306.15 362.09 306.584 362.09H307.998C308.306 362.09 308.376 362.006 308.418 361.432C308.642 361.586 309.048 361.726 309.356 361.796C309.244 362.734 308.922 362.986 308.138 362.986H306.43C305.31 362.986 304.988 362.734 304.988 361.768V360.368H307.564ZM303.042 360.368V359.612H300.214V358.744H304.148V361.25H301.516V361.768C301.516 362.048 301.586 362.09 301.992 362.09H303.322C303.63 362.09 303.686 362.02 303.728 361.474C303.938 361.628 304.358 361.768 304.666 361.824C304.554 362.734 304.246 362.986 303.462 362.986H301.866C300.732 362.986 300.438 362.734 300.438 361.782V360.368H303.042ZM303.616 365.002V366.15H305.59V365.002H303.616ZM309.286 366.15V367.144H299.99V366.15H302.384V365.002H300.424V364.036H302.384V363.14H303.616V364.036H305.59V363.14H306.836V364.036H308.852V365.002H306.836V366.15H309.286ZM309.16 368.852L307.844 369.37C307.298 368.88 306.304 368.236 305.38 367.76L306.304 367.2C307.326 367.676 308.488 368.334 309.16 368.852ZM302.874 367.186L304.022 367.578C303.308 368.264 302.16 368.922 301.236 369.342C301.026 369.118 300.564 368.726 300.284 368.544C301.25 368.194 302.258 367.704 302.874 367.186ZM299.738 360.872L298.632 361.614C298.282 360.928 297.428 359.934 296.644 359.234L297.68 358.576C298.464 359.248 299.346 360.186 299.738 360.872ZM299.458 363.686V368.166C300.074 369.16 301.222 369.608 302.762 369.664C304.386 369.734 307.718 369.692 309.51 369.566C309.384 369.86 309.188 370.42 309.118 370.798C307.466 370.868 304.428 370.896 302.776 370.84C301.012 370.77 299.794 370.294 298.94 369.216C298.38 369.79 297.792 370.364 297.134 370.966L296.476 369.734C297.022 369.342 297.666 368.81 298.254 368.278V364.89H296.658V363.686H299.458ZM312.52 360.046V362.398H315.656V360.046H312.52ZM313.948 364.89H317.014C317.014 364.89 317.014 365.254 317 365.422C316.846 368.838 316.706 370.14 316.328 370.574C316.076 370.896 315.796 370.98 315.376 371.022C315.012 371.078 314.354 371.078 313.682 371.05C313.654 370.7 313.528 370.224 313.318 369.902C313.962 369.972 314.578 369.972 314.816 369.972C315.04 369.972 315.18 369.958 315.278 369.818C315.516 369.566 315.656 368.572 315.768 366.052H313.808C313.486 368.026 312.842 369.888 311.372 371.12C311.176 370.812 310.798 370.406 310.476 370.21C312.352 368.698 312.66 365.982 312.786 363.546H311.33V358.898H316.916V363.546H314.06C314.032 363.994 314.004 364.442 313.948 364.89ZM319.422 359.934V367.662H318.162V359.934H319.422ZM321.508 358.534H322.81V369.454C322.81 370.266 322.614 370.644 322.124 370.882C321.606 371.078 320.766 371.12 319.492 371.106C319.422 370.756 319.226 370.154 319.03 369.776C319.982 369.818 320.864 369.804 321.144 369.804C321.41 369.79 321.508 369.706 321.508 369.454V358.534Z" fill="#DC2A8A"/>
<g clip-path="url(#clip3_486_8579)">
<path d="M418.995 104.826L413.866 99.7248C410.223 96.1009 404.337 96.0918 400.712 99.6973C397.087 103.303 397.096 109.165 400.74 112.78L405.869 117.881L419.051 130.991L432.177 117.936L437.288 112.853C440.913 109.248 440.904 103.385 437.26 99.7707C433.617 96.1468 427.731 96.1376 424.106 99.7431L418.995 104.826Z" fill="#DC2A8A"/>
</g>
<path d="M288.634 57.272H287.08C286.828 58.434 286.548 59.582 286.296 60.618C286.744 60.898 287.22 61.192 287.668 61.514C288.144 60.338 288.466 58.924 288.634 57.272ZM289.18 56.04L289.95 56.18C289.782 58.714 289.376 60.716 288.704 62.298C289.348 62.802 289.894 63.32 290.258 63.768L289.474 64.804C289.152 64.398 288.69 63.922 288.13 63.446C287.458 64.622 286.59 65.49 285.526 66.134C285.344 65.812 285.008 65.336 284.728 65.098C285.708 64.58 286.506 63.754 287.136 62.634C286.758 62.354 286.38 62.074 285.988 61.822L285.848 62.354L284.784 61.78C285.12 60.604 285.498 58.966 285.862 57.272H284.644V56.068H286.114C286.31 55.088 286.492 54.122 286.632 53.254L287.878 53.394C287.724 54.234 287.528 55.144 287.332 56.068H288.942L289.18 56.04ZM297.468 58.798V60.03H294.248V64.552C294.248 65.266 294.094 65.63 293.618 65.854C293.128 66.05 292.4 66.092 291.322 66.078C291.266 65.728 291.042 65.168 290.846 64.804C291.658 64.832 292.414 64.832 292.652 64.818C292.876 64.818 292.946 64.748 292.946 64.552V60.03H289.824V58.798H292.946V57.048H293.422C293.996 56.53 294.626 55.816 295.102 55.158H290.3V53.954H296.04L296.292 53.884L297.16 54.514C296.39 55.62 295.27 56.894 294.248 57.762V58.798H297.468ZM304.888 55.27C304.762 54.822 304.622 54.346 304.454 53.884L305.952 53.716C306.008 54.234 306.12 54.766 306.246 55.298C307.226 55.172 308.178 54.962 309.074 54.668L309.256 55.942C308.472 56.166 307.52 56.362 306.568 56.488C306.666 56.782 306.75 57.062 306.848 57.314C306.932 57.552 307.03 57.804 307.128 58.07C308.276 57.93 309.2 57.692 309.872 57.482L310.096 58.798C309.424 58.966 308.598 59.134 307.674 59.26C307.94 59.806 308.234 60.324 308.542 60.786C308.71 61.038 308.892 61.234 309.116 61.444L308.416 62.48C307.632 62.298 306.232 62.144 305.252 62.046L305.364 60.982C306.036 61.052 306.876 61.136 307.31 61.178C306.946 60.604 306.624 60.002 306.358 59.414C304.65 59.554 302.368 59.554 300.226 59.414L300.156 58.112C302.256 58.322 304.258 58.322 305.84 58.196C305.756 57.986 305.672 57.776 305.602 57.58C305.476 57.216 305.378 56.894 305.28 56.6C303.936 56.67 302.256 56.656 300.506 56.488L300.422 55.214C302.088 55.396 303.614 55.466 304.93 55.396C304.916 55.354 304.902 55.312 304.888 55.27ZM302.48 61.22C302.144 61.696 301.878 62.186 301.878 62.788C301.878 63.894 302.886 64.412 304.93 64.412C306.246 64.412 307.338 64.314 308.346 64.104L308.276 65.518C307.296 65.672 306.12 65.77 304.944 65.77C302.172 65.77 300.548 64.944 300.52 63.054C300.506 62.214 300.786 61.584 301.108 60.954L302.48 61.22ZM318.44 53.814C318.328 54.304 318.132 55.088 317.922 55.872C318.636 55.76 319.336 55.606 319.98 55.396L320.022 56.684C319.322 56.88 318.454 57.062 317.516 57.188C316.83 59.162 315.612 61.598 314.478 63.138L313.134 62.452C314.282 61.08 315.444 58.924 316.074 57.342C315.724 57.356 315.388 57.37 315.052 57.37C314.52 57.37 313.932 57.356 313.372 57.328L313.274 56.026C313.82 56.082 314.492 56.11 315.052 56.11C315.514 56.11 316.004 56.096 316.494 56.054C316.704 55.27 316.872 54.402 316.9 53.66L318.44 53.814ZM317.684 63.516C317.684 64.118 318.188 64.524 319.14 64.524C320.204 64.524 320.554 63.936 320.554 63.18C320.554 63.054 320.554 62.886 320.54 62.704C320.134 62.592 319.7 62.522 319.238 62.522C318.314 62.522 317.684 62.942 317.684 63.516ZM321.73 58.154C321.702 58.742 321.716 59.232 321.73 59.792C321.744 60.254 321.786 61.066 321.828 61.864C323.032 62.298 324.012 62.998 324.726 63.628L323.984 64.818C323.438 64.314 322.724 63.712 321.884 63.25C321.884 63.39 321.884 63.53 321.884 63.642C321.884 64.832 321.17 65.798 319.322 65.798C317.698 65.798 316.382 65.098 316.382 63.642C316.382 62.326 317.572 61.402 319.308 61.402C319.728 61.402 320.12 61.444 320.498 61.5C320.456 60.394 320.386 59.078 320.358 58.154H321.73ZM324.362 58.686C323.592 58.042 322.038 57.16 321.086 56.726L321.8 55.648C322.808 56.096 324.46 57.02 325.16 57.524L324.362 58.686ZM332.202 53.198H333.532C335.016 55.396 337.382 57.412 339.594 58.462C339.272 58.798 338.95 59.232 338.726 59.624C336.556 58.378 334.162 56.306 332.93 54.5C331.81 56.25 329.612 58.308 327.274 59.68C327.106 59.372 326.728 58.91 326.448 58.63C328.856 57.314 331.152 55.06 332.202 53.198ZM333.77 61.36V64.538H338.922V65.714H327.106V64.538H328.758V59.512H330.032V64.538H332.398V57.048H333.77V60.184H337.648V61.36H333.77ZM348.918 56.726H345.152C345.404 57.132 345.656 57.636 345.754 57.972L345.348 58.056H348.302C348.512 57.678 348.736 57.174 348.918 56.726ZM353.132 62.858H348.75C349.982 63.726 351.788 64.44 353.496 64.762C353.202 65.042 352.824 65.574 352.628 65.924C350.808 65.434 348.932 64.496 347.616 63.292V66.106H346.342V63.39C345.012 64.51 343.122 65.42 341.372 65.91C341.176 65.574 340.812 65.084 340.518 64.804C342.184 64.454 344.004 63.726 345.236 62.858H340.91V61.766H346.342V60.912H342.212V59.932H346.342V59.092H341.526V58.056H344.396C344.27 57.664 344.032 57.16 343.808 56.782L344.144 56.726H340.966V55.634H343.038C342.828 55.088 342.408 54.318 342.016 53.744L343.15 53.366C343.584 53.968 344.074 54.822 344.27 55.368L343.556 55.634H345.096V53.24H346.314V55.634H347.7V53.24H348.932V55.634H350.444L349.912 55.466C350.248 54.906 350.682 54.024 350.892 53.394L352.236 53.73C351.858 54.416 351.438 55.116 351.074 55.634H353.09V56.726H350.388C350.122 57.202 349.842 57.664 349.604 58.056H352.572V59.092H347.616V59.932H351.914V60.912H347.616V61.766H353.132V62.858ZM361 58.056C361.896 58.056 362.624 58.784 362.624 59.68C362.624 60.576 361.896 61.304 361 61.304C360.104 61.304 359.376 60.576 359.376 59.68C359.376 58.784 360.104 58.056 361 58.056ZM373.908 53.73C373.866 53.996 373.824 54.472 373.796 54.808C373.782 55.144 373.768 55.592 373.74 56.096C374.72 55.984 375.728 55.788 376.498 55.564L376.526 56.936C375.714 57.118 374.678 57.286 373.712 57.398C373.698 57.958 373.684 58.518 373.684 59.022C373.684 59.176 373.684 59.344 373.684 59.512C374.706 59.218 375.742 59.064 376.596 59.064C378.682 59.064 380.25 60.184 380.25 61.976C380.25 63.642 379.284 64.804 377.226 65.294C376.596 65.434 375.966 65.476 375.448 65.504L374.944 64.076C375.504 64.09 376.106 64.09 376.624 63.978C377.8 63.754 378.822 63.138 378.822 61.962C378.822 60.884 377.856 60.282 376.582 60.282C375.602 60.282 374.636 60.45 373.712 60.744C373.726 61.906 373.768 63.082 373.768 63.642C373.768 65.126 373.222 65.56 372.396 65.56C371.178 65.56 369.316 64.44 369.316 63.096C369.316 61.906 370.758 60.66 372.41 59.946C372.41 59.652 372.41 59.358 372.41 59.078C372.41 58.588 372.41 58.056 372.424 57.524C372.074 57.552 371.766 57.566 371.5 57.566C370.646 57.566 370.114 57.538 369.652 57.496L369.61 56.152C370.408 56.25 370.954 56.264 371.472 56.264C371.766 56.264 372.088 56.25 372.438 56.222C372.438 55.592 372.452 55.088 372.452 54.836C372.452 54.542 372.41 53.982 372.368 53.73H373.908ZM378.094 55.27C379.13 55.788 380.698 56.74 381.398 57.286L380.712 58.406C380.04 57.79 378.36 56.796 377.478 56.334L378.094 55.27ZM370.688 63.026C370.688 63.586 371.528 64.062 372.004 64.062C372.284 64.062 372.48 63.88 372.48 63.418C372.48 62.97 372.452 62.158 372.438 61.248C371.416 61.752 370.688 62.466 370.688 63.026ZM392.906 64.426V62.074H387.334V64.426H392.906ZM390.582 56.474V57.972H395.118V59.134H390.582V60.926H394.236V66.092H392.906V65.588H387.334V66.106H386.06V60.926H389.266V56.474H390.582ZM390.092 54.962H395.314V56.222H384.996V58.518C384.996 60.702 384.786 63.95 383.568 66.092C383.33 65.882 382.756 65.49 382.462 65.35C383.596 63.362 383.694 60.52 383.694 58.518V54.962H388.734V53.254H390.092V54.962ZM397.05 55.62C397.582 55.606 398.072 55.578 398.352 55.55C399.374 55.452 401.866 55.214 404.442 54.99C405.94 54.864 407.34 54.78 408.306 54.752V56.166C407.522 56.166 406.304 56.18 405.576 56.362C403.714 56.922 402.482 58.924 402.482 60.576C402.482 63.124 404.862 63.978 407.172 64.076L406.668 65.574C403.924 65.434 401.054 63.964 401.054 60.884C401.054 58.77 402.3 57.076 403.434 56.334C402.02 56.474 398.758 56.81 397.19 57.146L397.05 55.62ZM406.29 57.72C406.626 58.21 407.144 59.064 407.438 59.652L406.57 60.044C406.234 59.33 405.87 58.686 405.45 58.084L406.29 57.72ZM407.844 57.118C408.18 57.594 408.726 58.434 409.034 59.022L408.18 59.428C407.816 58.714 407.452 58.098 407.004 57.496L407.844 57.118ZM294.038 77.93V77.58H293.142V76.768H291.07V77.538H293.086V81.626H291.07V82.424H293.114V83.39H291.07V84.328C291.672 84.272 292.288 84.216 292.904 84.16C293.912 82.2 294.038 79.834 294.038 77.93ZM288.9 79.946V80.8H290.048V79.946H288.9ZM288.9 78.364V79.176H290.048V78.364H288.9ZM290.958 79.176H292.176V78.364H290.958V79.176ZM290.958 80.8H292.176V79.946H290.958V80.8ZM295.158 76.446H297.314C297.314 76.446 297.3 76.866 297.3 77.006C297.174 82.9 297.09 84.86 296.712 85.434C296.46 85.798 296.222 85.91 295.844 85.98C295.494 86.022 294.99 86.036 294.472 86.008C294.444 85.686 294.332 85.196 294.15 84.874C294.654 84.902 295.074 84.916 295.298 84.916C295.48 84.916 295.592 84.874 295.704 84.692C295.97 84.314 296.082 82.578 296.18 77.58H295.158V77.916C295.158 80.59 294.892 83.894 292.96 86.162C292.75 85.952 292.316 85.63 292.022 85.476C292.092 85.392 292.176 85.294 292.246 85.21C290.65 85.392 289.068 85.574 287.85 85.7L287.668 84.608C288.312 84.566 289.096 84.496 289.964 84.426V83.39H287.99V82.424H289.964V81.626H288.018V77.538H289.964V76.768H287.864V75.788H289.964V75.088C289.32 75.158 288.676 75.2 288.074 75.242C288.032 74.99 287.934 74.668 287.836 74.43C287.626 75.032 287.402 75.648 287.15 76.236V86.12H285.974V78.602C285.652 79.176 285.302 79.694 284.938 80.142C284.854 79.82 284.518 79.092 284.336 78.77C285.4 77.426 286.366 75.382 286.926 73.324L288.088 73.632C288.018 73.856 287.948 74.094 287.864 74.332C289.46 74.178 291.35 73.954 292.498 73.674L293.17 74.612C292.554 74.752 291.84 74.878 291.07 74.962V75.788H293.198V76.446H294.038V73.31H295.158V76.446ZM308.038 74.78C307.688 75.046 307.24 75.424 306.96 75.648C306.022 76.432 304.09 77.958 303.096 78.798C302.298 79.484 302.298 79.666 303.124 80.38C304.314 81.36 306.862 83.39 308.318 84.846L307.044 86.008C306.708 85.63 306.344 85.238 305.98 84.874C305.042 83.922 302.956 82.13 301.654 81.038C300.296 79.904 300.436 79.232 301.766 78.126C302.844 77.23 304.874 75.606 305.826 74.668C306.148 74.332 306.554 73.912 306.736 73.618L308.038 74.78ZM315.178 75.018C316.2 75.144 317.502 75.2 318.93 75.2C320.288 75.2 321.8 75.102 322.836 75.004V76.46C321.87 76.53 320.246 76.628 318.944 76.628C317.516 76.628 316.298 76.558 315.178 76.474V75.018ZM316.018 80.786C315.85 81.318 315.752 81.808 315.752 82.298C315.752 83.292 316.732 83.992 318.874 83.992C320.792 83.992 322.584 83.782 323.718 83.432L323.732 84.972C322.64 85.266 320.904 85.462 318.93 85.462C315.92 85.462 314.296 84.468 314.296 82.634C314.296 81.878 314.45 81.206 314.576 80.66L316.018 80.786ZM330.438 73.996C330.998 75.508 331.684 76.936 332.272 78.028C333.504 77.286 334.89 76.6 335.618 76.194C336.08 75.928 336.416 75.718 336.738 75.452L337.508 76.726C337.144 76.95 336.752 77.16 336.304 77.384C335.38 77.86 333.518 78.728 332.188 79.596C330.956 80.408 330.172 81.29 330.172 82.312C330.172 83.404 331.222 84.048 333.308 84.048C334.806 84.048 336.682 83.838 337.83 83.544L337.816 85.14C336.71 85.336 335.142 85.476 333.364 85.476C330.662 85.476 328.674 84.706 328.674 82.466C328.674 80.982 329.626 79.834 331.054 78.826C330.41 77.65 329.71 76.068 329.052 74.57L330.438 73.996ZM346.132 74.094C346.062 74.388 345.992 74.752 345.922 75.06C345.838 75.494 345.712 76.166 345.586 76.824C346.16 76.768 346.678 76.74 347 76.74C348.344 76.74 349.38 77.286 349.38 79.246C349.38 80.898 349.17 83.152 348.582 84.328C348.12 85.294 347.392 85.56 346.426 85.56C345.88 85.56 345.222 85.462 344.76 85.35L344.522 83.894C345.096 84.062 345.852 84.174 346.244 84.174C346.734 84.174 347.126 84.048 347.392 83.516C347.812 82.634 348.008 80.856 348.008 79.4C348.008 78.196 347.462 77.986 346.58 77.986C346.286 77.986 345.824 78.014 345.306 78.07C344.788 80.128 343.794 83.362 342.408 85.602L340.966 85.028C342.366 83.138 343.374 80.114 343.864 78.21C343.234 78.28 342.66 78.35 342.338 78.392C341.988 78.434 341.33 78.518 340.952 78.588L340.812 77.076C341.274 77.104 341.694 77.09 342.17 77.076C342.618 77.062 343.374 77.006 344.158 76.936C344.368 75.9 344.494 74.836 344.494 73.926L346.132 74.094ZM352.516 73.03C352.88 73.548 353.412 74.43 353.678 74.934L352.768 75.34C352.46 74.738 352.012 73.94 351.606 73.408L352.516 73.03ZM350.92 73.618C351.27 74.122 351.774 75.004 352.054 75.55L351.158 75.928C352.012 77.188 353.062 79.456 353.468 80.66L352.082 81.318C351.69 79.82 350.626 77.37 349.646 76.194L350.948 75.62C350.962 75.648 350.99 75.676 351.004 75.704C350.738 75.158 350.346 74.458 350.01 73.996L350.92 73.618ZM355.05 75.62C355.582 75.606 356.072 75.578 356.352 75.55C357.374 75.452 359.866 75.214 362.442 74.99C363.94 74.864 365.34 74.78 366.306 74.752V76.166C365.522 76.166 364.304 76.18 363.576 76.362C361.714 76.922 360.482 78.924 360.482 80.576C360.482 83.124 362.862 83.978 365.172 84.076L364.668 85.574C361.924 85.434 359.054 83.964 359.054 80.884C359.054 78.77 360.3 77.076 361.434 76.334C360.02 76.474 356.758 76.81 355.19 77.146L355.05 75.62ZM364.29 77.72C364.626 78.21 365.144 79.064 365.438 79.652L364.57 80.044C364.234 79.33 363.87 78.686 363.45 78.084L364.29 77.72ZM365.844 77.118C366.18 77.594 366.726 78.434 367.034 79.022L366.18 79.428C365.816 78.714 365.452 78.098 365.004 77.496L365.844 77.118ZM374.888 75.27C374.762 74.822 374.622 74.346 374.454 73.884L375.952 73.716C376.008 74.234 376.12 74.766 376.246 75.298C377.226 75.172 378.178 74.962 379.074 74.668L379.256 75.942C378.472 76.166 377.52 76.362 376.568 76.488C376.666 76.782 376.75 77.062 376.848 77.314C376.932 77.552 377.03 77.804 377.128 78.07C378.276 77.93 379.2 77.692 379.872 77.482L380.096 78.798C379.424 78.966 378.598 79.134 377.674 79.26C377.94 79.806 378.234 80.324 378.542 80.786C378.71 81.038 378.892 81.234 379.116 81.444L378.416 82.48C377.632 82.298 376.232 82.144 375.252 82.046L375.364 80.982C376.036 81.052 376.876 81.136 377.31 81.178C376.946 80.604 376.624 80.002 376.358 79.414C374.65 79.554 372.368 79.554 370.226 79.414L370.156 78.112C372.256 78.322 374.258 78.322 375.84 78.196C375.756 77.986 375.672 77.776 375.602 77.58C375.476 77.216 375.378 76.894 375.28 76.6C373.936 76.67 372.256 76.656 370.506 76.488L370.422 75.214C372.088 75.396 373.614 75.466 374.93 75.396C374.916 75.354 374.902 75.312 374.888 75.27ZM372.48 81.22C372.144 81.696 371.878 82.186 371.878 82.788C371.878 83.894 372.886 84.412 374.93 84.412C376.246 84.412 377.338 84.314 378.346 84.104L378.276 85.518C377.296 85.672 376.12 85.77 374.944 85.77C372.172 85.77 370.548 84.944 370.52 83.054C370.506 82.214 370.786 81.584 371.108 80.954L372.48 81.22ZM386.991 83.446C386.991 84.062 387.677 84.44 388.671 84.44C389.021 84.44 389.357 84.426 389.665 84.384C389.553 83.362 388.937 82.648 388.013 82.648C387.425 82.648 386.991 83.026 386.991 83.446ZM384.947 74.528C385.297 74.57 385.731 74.584 386.067 74.584C386.795 74.584 389.987 74.5 390.743 74.43C391.233 74.388 391.485 74.36 391.639 74.304L392.409 75.312C392.115 75.494 391.821 75.69 391.527 75.914C390.813 76.446 389.091 77.902 388.097 78.714C388.657 78.546 389.217 78.476 389.777 78.476C392.115 78.476 393.851 79.918 393.851 81.878C393.851 84.104 392.073 85.7 388.923 85.7C386.991 85.7 385.703 84.846 385.703 83.572C385.703 82.536 386.627 81.598 388.013 81.598C389.749 81.598 390.743 82.718 390.925 84.048C391.891 83.628 392.409 82.872 392.409 81.85C392.409 80.534 391.121 79.582 389.371 79.582C387.131 79.582 385.815 80.632 384.163 82.396L383.141 81.36C384.233 80.464 385.983 78.994 386.809 78.308C387.593 77.664 389.217 76.32 389.917 75.704C389.175 75.732 386.753 75.844 386.025 75.886C385.675 75.9 385.311 75.928 384.989 75.97L384.947 74.528Z" fill="#DC2A8A"/>
<path d="M16.608 441.498V440.382H12.774V441.498H16.608ZM12.774 438.042V439.068H16.608V438.042H12.774ZM7.698 434.676H11.082V433.596H7.698V434.676ZM16.32 433.596H12.774V434.676H16.32V433.596ZM20.172 439.068V440.382H18.3V443.532H16.608V442.758H12.774V443.694C12.774 444.612 12.54 444.99 11.928 445.224C11.316 445.44 10.38 445.458 8.868 445.458C8.778 445.08 8.526 444.468 8.292 444.108C9.282 444.144 10.362 444.144 10.65 444.126C10.974 444.108 11.082 444.018 11.082 443.712V442.758H5.466V441.498H11.082V440.382H3.882V439.068H11.082V438.042H5.628V436.854H11.082V435.792H6.096V432.48H11.082V431.562H4.26V430.212H11.082V428.898H12.774V430.212H19.794V431.562H12.774V432.48H18.012V435.792H12.774V436.854H18.3V439.068H20.172ZM32.466 433.362H27.624C27.948 433.884 28.272 434.532 28.398 434.964L27.876 435.072H31.674C31.944 434.586 32.232 433.938 32.466 433.362ZM37.884 441.246H32.25C33.834 442.362 36.156 443.28 38.352 443.694C37.974 444.054 37.488 444.738 37.236 445.188C34.896 444.558 32.484 443.352 30.792 441.804V445.422H29.154V441.93C27.444 443.37 25.014 444.54 22.764 445.17C22.512 444.738 22.044 444.108 21.666 443.748C23.808 443.298 26.148 442.362 27.732 441.246H22.17V439.842H29.154V438.744H23.844V437.484H29.154V436.404H22.962V435.072H26.652C26.49 434.568 26.184 433.92 25.896 433.434L26.328 433.362H22.242V431.958H24.906C24.636 431.256 24.096 430.266 23.592 429.528L25.05 429.042C25.608 429.816 26.238 430.914 26.49 431.616L25.572 431.958H27.552V428.88H29.118V431.958H30.9V428.88H32.484V431.958H34.428L33.744 431.742C34.176 431.022 34.734 429.888 35.004 429.078L36.732 429.51C36.246 430.392 35.706 431.292 35.238 431.958H37.83V433.362H34.356C34.014 433.974 33.654 434.568 33.348 435.072H37.164V436.404H30.792V437.484H36.318V438.744H30.792V439.842H37.884V441.246ZM47.64 434.478H48.81C49.656 433.848 50.43 433.164 51.168 432.462H47.64V434.478ZM52.104 440.544V439.05H45.318V440.544H52.104ZM45.318 443.442H52.104V441.858H45.318V443.442ZM55.974 435.972H49.368C48.558 436.584 47.712 437.124 46.848 437.664H53.832V445.35H52.104V444.864H45.318V445.422H43.662V439.374C42.654 439.842 41.628 440.274 40.602 440.67C40.404 440.292 39.882 439.626 39.576 439.284C42.06 438.456 44.454 437.34 46.614 435.972H40.026V434.478H45.984V432.462H41.592V431.004H45.984V428.898H47.64V431.004H51.834V431.796C52.554 431.058 53.22 430.284 53.796 429.474L55.236 430.23C54.102 431.778 52.752 433.182 51.258 434.478H55.974V435.972Z" fill="#DC2A8A"/>
<path d="M515.714 103.03C515.57 103.318 515.48 103.714 515.39 104.074C514.994 105.91 514.166 108.772 512.708 110.68C511.07 112.822 508.82 114.532 505.544 115.558L503.996 113.866C507.524 113.002 509.558 111.472 511.034 109.582C512.276 108.016 513.05 105.712 513.284 104.056H504.446C503.672 104.056 502.952 104.092 502.502 104.128V102.112C503.006 102.184 503.852 102.256 504.446 102.256H513.176C513.482 102.256 513.932 102.238 514.328 102.13L515.714 103.03ZM529.898 103.912C529.826 104.308 529.826 104.812 529.826 105.244C529.826 105.586 529.844 106.036 529.844 106.558H532.238C532.652 106.558 533.282 106.504 533.552 106.45V108.214C533.192 108.196 532.67 108.178 532.292 108.178H529.88C529.934 110.392 529.988 113.11 530.006 114.874C530.006 115.72 529.376 116.26 528.476 116.26C527.684 116.26 526.55 116.206 525.794 116.152L525.686 114.514C526.406 114.622 527.324 114.694 527.828 114.694C528.152 114.694 528.296 114.496 528.296 114.136C528.296 113.11 528.278 111.418 528.26 109.726C527.018 111.4 524.48 113.578 522.176 114.802L520.934 113.38C523.562 112.156 526.208 109.942 527.45 108.178H523.04C522.554 108.178 522.014 108.196 521.546 108.232V106.45C521.96 106.522 522.554 106.558 523.004 106.558H528.206C528.188 106.036 528.17 105.604 528.152 105.244C528.134 104.866 528.098 104.344 528.026 103.912H529.898ZM538.466 102.472C539.186 102.508 539.762 102.508 540.212 102.508H549.986C550.4 102.508 551.048 102.508 551.642 102.49C551.606 102.976 551.606 103.534 551.606 104.038V112.876C551.606 113.506 551.642 115.054 551.642 115.198H549.68C549.698 115.108 549.698 114.694 549.716 114.19H540.392C540.392 114.676 540.392 115.108 540.41 115.198H538.448C538.466 115.036 538.502 113.596 538.502 112.876V104.038C538.502 103.57 538.502 102.94 538.466 102.472ZM540.374 104.308V112.39H549.716V104.308H540.374ZM569.984 102.976C569.876 103.192 569.732 103.768 569.696 103.966C569.372 106 568.976 108.574 567.644 110.68C566.168 113.002 563.702 114.82 560.822 115.792L559.256 114.19C561.794 113.542 564.458 111.994 565.916 109.726C566.888 108.178 567.41 106.018 567.59 103.966H558.23V107.314C558.23 107.566 558.23 108.106 558.284 108.61H556.214C556.25 108.124 556.286 107.71 556.286 107.314V103.48C556.286 103.048 556.25 102.58 556.214 102.148C556.718 102.184 557.456 102.202 558.248 102.202H567.212C567.698 102.202 568.22 102.184 568.598 102.094L569.984 102.976ZM573.746 106.972C574.34 107.008 575.456 107.08 576.428 107.08H586.22C587.084 107.08 587.786 107.008 588.236 106.972V109.204C587.84 109.186 587.012 109.114 586.22 109.114H576.428C575.438 109.114 574.358 109.15 573.746 109.204V106.972Z" fill="#DC2A8A"/>
<path d="M491.279 73.3101L479.732 73.3101L485.506 83.3101L491.279 73.3101ZM450.21 98.1761L483.985 78.6761L482.985 76.944L449.21 96.444L450.21 98.1761Z" fill="#5ADCD4"/>
<path d="M392.378 130.663L380.831 130.663L386.604 140.663L392.378 130.663ZM351.308 155.529L385.083 136.029L384.083 134.297L350.308 153.797L351.308 155.529Z" fill="#5ADCD4"/>
<path d="M554.987 40.7888C552.906 41.2279 545.846 42.362 542.143 41.1276C539.938 40.3946 537.51 39.7584 536.415 38.614C536.512 36.2179 537.198 33.8218 537.299 31.4258C537.507 26.3224 537.129 21.2191 537.337 16.1158C537.337 12.8519 540.135 10.3763 543.19 10.933L553.239 12.921C556.672 14.598 557.633 16.9387 557.307 22.5122C557.119 25.7001 553.468 27.1315 554.165 31.488C554.637 34.4373 555.289 38.2786 554.987 40.7819V40.7888Z" fill="#DC2A8A"/>
<path d="M550.566 12.434C550.091 13.0806 549.418 13.862 548.503 14.6192C547.175 15.7187 545.857 16.3341 544.921 16.6799C545.091 15.5908 545.264 14.5051 545.434 13.416V11.8532L550.764 9.28076L550.566 12.4306V12.434Z" fill="#FFCC8B"/>
<path d="M554.2 33.0405H551.308V25.7001L557.033 23.7847V30.2191C557.033 31.7785 555.763 33.0439 554.2 33.0439V33.0405Z" fill="#DC2A8A"/>
<path d="M544.355 24.6699L537.562 14.5601L535.149 27.1662C534.871 28.6184 535.631 30.0706 536.987 30.6756L542.295 33.0406L544.359 24.6699H544.355Z" fill="#DC2A8A"/>
<path d="M553.009 19.096C553.14 18.7926 552.424 18.1935 551.409 17.7578C550.394 17.3222 549.465 17.215 549.334 17.5185C549.203 17.8219 549.919 18.421 550.934 18.8567C551.949 19.2923 552.878 19.3995 553.009 19.096Z" fill="#D8FFE7"/>
<path d="M545.846 11.2339L542.504 14.5669C543.093 14.0725 543.301 14.6084 543.964 14.9715C544.577 15.3069 544.948 15.9707 544.921 16.6795" fill="#FFFFDB"/>
<path d="M551.682 11.1338C550.958 13.0562 550.236 14.9786 549.512 16.901C549.494 16.8111 549.46 16.7488 549.408 16.7039C549.04 16.3754 548.187 16.8871 547.195 17.0427C546.401 17.1672 544.848 16.8975 544.865 16.7281C544.865 16.7039 546.8 15.798 547.729 15.0408C548.367 14.5187 549.484 13.5057 551.682 11.1338Z" fill="#FFFFDB"/>
<path d="M551.419 9.82297C549.692 12.4127 546.38 13.2425 544.022 11.6762C541.664 10.1134 543.343 5.4561 543.714 3.48531C544.078 1.54909 547.92 0.740024 550.278 2.30283C552.636 3.86563 553.146 7.23327 551.415 9.81951L551.419 9.82297Z" fill="#FFD3AB"/>
<path d="M550.181 11.2994C549.491 11.5069 552.4 9.51534 551.488 8.58872C551.211 8.30866 550.323 8.18765 549.761 8.74085C550.857 6.23414 551.03 4.42585 549.9 4.18382C549.654 3.98674 549.695 3.5096 548.728 3.37476C547.871 3.25375 545.749 4.06972 545.018 3.84153C543.873 3.48886 543.107 3.09816 543.471 2.68325C547.511 -1.94293 551.942 0.684797 553.076 2.43431C555.216 5.74317 552.494 10.6045 550.188 11.2994H550.181Z" fill="#4D4D4D"/>
<path d="M555.514 14.4705C555.774 13.5853 556.634 11.3172 556.093 11.1685C556.093 11.1685 556.405 9.42938 556.135 9.34294C555.85 9.25304 555.764 9.40517 555.621 9.49507C555.646 9.34294 555.67 8.82777 555.205 8.76207C554.793 8.7033 554.748 9.20464 554.633 9.46395C554.633 9.46395 554.515 9.2323 554.363 9.18735C553.645 8.97644 552.594 12.6311 552.594 12.6311C552.632 10.3456 551.707 11.4486 551.578 11.8047L551.349 13.817C551.162 14.0832 550.954 14.4359 550.781 14.875C550.521 15.5492 550.458 16.1577 550.448 16.5692C550.021 17.3644 549.591 18.1631 549.165 18.9583L551.817 20.3759L553.34 17.5442L554.536 16.0955L554.928 15.5942C555.191 15.2588 555.389 14.875 555.51 14.467L555.514 14.4705Z" fill="#FFCD8B"/>
<path d="M550.51 19.6048C549.539 19.1242 549.158 18.4188 548.998 18.1215C549.109 17.8967 549.224 17.672 549.331 17.4473C549.47 17.717 550.195 18.3843 550.853 18.7024C551.713 19.1173 552.757 19.1 553.007 19.0274L552.858 19.7776C552.563 19.8641 551.7 20.1925 550.51 19.6048Z" fill="#FFFFDB"/>
<path d="M543.097 29.1267L548.052 30.4959C549.207 28.3488 553.066 19.5113 553.066 19.5113C552.778 19.5562 551.814 19.8674 550.465 19.1344C549.373 18.5432 548.96 17.7514 548.797 17.4575C547.369 20.0507 544.522 26.5335 543.097 29.1267Z" fill="#DC2A8A"/>
<path d="M551.129 18.6002C551.304 18.3197 550.686 17.6204 549.747 17.0381C548.809 16.4559 547.907 16.2112 547.732 16.4917C547.557 16.7722 548.175 17.4715 549.113 18.0537C550.052 18.636 550.954 18.8806 551.129 18.6002Z" fill="#D8FFE7"/>
<path d="M549.515 12.9177L549.324 13.5228L548.815 15.3311L547.351 18.1939L550.032 19.5562C550.444 18.7506 550.854 17.945 551.266 17.1394C551.603 16.8973 552.067 16.4997 552.473 15.9016C552.74 15.5109 552.91 15.1374 553.021 14.8332L554.547 13.4951C554.768 13.1874 555.146 11.7975 553.288 13.1355C553.288 13.1355 555.698 10.1897 555.115 9.72294C554.99 9.62267 554.73 9.65725 554.73 9.65725C554.879 9.41522 555.268 9.09021 554.983 8.7894C554.664 8.44711 554.255 8.75829 554.144 8.86547C554.137 8.70297 554.214 8.54046 553.978 8.36067C553.752 8.18779 552.497 9.43596 552.497 9.43596C552.067 9.07638 550.691 11.0748 550.108 11.7975C549.841 12.1294 549.64 12.5132 549.512 12.9177H549.515Z" fill="#FFD3AB"/>
<path d="M548.679 18.865C549.63 19.3837 550.427 19.2938 550.763 19.2592C550.885 19.0414 551.006 18.8201 551.128 18.6023C550.826 18.6438 549.862 18.4294 549.224 18.0733C548.392 17.603 547.809 16.7421 547.729 16.4932L547.195 17.0429C547.292 17.3333 547.514 18.2288 548.679 18.865Z" fill="#FFFFDB"/>
<path d="M545.135 30.3296L541.179 27.0518C542.289 24.8805 547.362 16.6758 547.362 16.6758C547.486 16.9351 547.785 17.9032 549.154 18.5913C550.267 19.1479 551.152 19.0338 551.488 18.9992C550.167 21.6477 546.453 27.6811 545.135 30.3261V30.3296Z" fill="#DC2A8A"/>
<path d="M554.467 5.55851C555.894 5.09672 556.706 3.66525 556.281 2.36123C555.856 1.05721 554.356 0.374441 552.93 0.836227C551.503 1.29801 550.691 2.72948 551.116 4.0335C551.541 5.33753 553.041 6.02029 554.467 5.55851Z" fill="#4D4D4D"/>
<g clip-path="url(#clip4_486_8579)">
<path d="M257.466 230.121C257.466 225.762 260.304 222.214 265.417 222.214C270.53 222.214 272.775 225.16 272.775 229.038C272.775 230.03 272.619 230.812 272.619 230.812H261.27C261.488 233.367 262.954 234.991 265.76 234.991C269.003 234.991 269.72 233.367 269.72 233.367H272.463V235.351C272.463 235.351 270.905 238.027 265.729 238.027C260.241 238.027 257.466 234.69 257.466 230.121ZM269.096 228.347C269.096 226.603 267.911 225.221 265.417 225.221C262.923 225.221 261.8 226.513 261.395 228.347H269.096Z" fill="#5ADCD4"/>
<path d="M276.236 222.575H279.697L279.978 224.86C281.1 223.236 282.971 222.214 285.341 222.214C289.862 222.214 292.512 225.732 292.512 230.091C292.512 234.449 289.799 238.027 285.341 238.027C282.971 238.027 281.163 237.035 280.009 235.441V245.181H276.236V222.575ZM288.708 230.091C288.708 227.505 287.274 225.401 284.374 225.401C281.693 225.401 280.009 227.475 280.009 230.091C280.009 232.706 281.693 234.84 284.374 234.84C287.274 234.84 288.708 232.706 288.708 230.091Z" fill="#5ADCD4"/>
<path d="M295.037 230.121C295.037 225.762 297.874 222.214 302.988 222.214C308.101 222.214 310.346 225.16 310.346 229.038C310.346 230.03 310.19 230.812 310.19 230.812H298.841C299.059 233.367 300.524 234.991 303.331 234.991C306.573 234.991 307.29 233.367 307.29 233.367H310.034V235.351C310.034 235.351 308.475 238.027 303.299 238.027C297.812 238.027 295.037 234.69 295.037 230.121ZM306.667 228.347C306.667 226.603 305.482 225.221 302.988 225.221C300.493 225.221 299.371 226.513 298.965 228.347H306.667Z" fill="#5ADCD4"/>
<path d="M313.337 233.337C313.337 230.662 315.301 228.768 319.853 228.768C321.661 228.768 323.127 229.129 323.127 229.129V228.317C323.127 226.303 322.223 225.281 320.103 225.281C317.733 225.281 316.922 226.904 316.922 226.904H314.241V224.92C314.241 224.92 315.675 222.214 320.196 222.214C324.717 222.214 326.931 224.319 326.931 228.407V237.666H323.688L323.345 235.592C322.566 236.734 321.1 238.027 318.575 238.027C315.083 238.027 313.337 235.922 313.337 233.337ZM323.13 232.255V231.533C323.13 231.533 321.82 231.173 319.981 231.173C317.736 231.173 317.081 232.135 317.081 233.157C317.081 234.54 317.954 235.141 319.513 235.141C321.851 235.141 323.13 233.518 323.13 232.255Z" fill="#5ADCD4"/>
<path d="M332.075 232.466V225.612H329.612V222.575H332.169L332.387 218.788H335.848V222.575H342.022V225.612H335.848V232.225C335.848 233.969 336.441 234.961 338.062 234.961C339.683 234.961 339.933 233.788 339.933 233.638H342.552V235.652C341.959 236.764 340.65 238.027 337.906 238.027C334.102 238.027 332.075 236.013 332.075 232.466Z" fill="#5ADCD4"/>
<path d="M345.544 235.231V233.247H348.226C348.257 233.427 349.317 235.141 352.061 235.141C354.119 235.141 354.805 234.48 354.805 233.487C354.805 232.255 353.526 231.954 351.843 231.624L350.034 231.293C347.665 230.902 345.825 229.67 345.825 226.934C345.825 224.349 347.945 222.214 351.749 222.214C355.21 222.214 356.862 223.507 357.517 224.83V226.814H354.867C354.836 226.663 354.088 225.07 351.718 225.07C349.972 225.07 349.317 225.792 349.317 226.754C349.317 227.716 350.252 228.227 351.656 228.497L353.464 228.828C356.021 229.279 358.266 230.271 358.266 233.127C358.266 235.983 356.114 238.027 352.061 238.027C347.415 238.027 345.732 235.652 345.544 235.231Z" fill="#5ADCD4"/>
<path d="M251.094 227.2H246.757L252.279 237.667H256.871L251.094 227.2ZM239.051 228.96V237.667H243.268V228.96H239.051Z" fill="#5ADCD4"/>
<path d="M254.17 217.971V222.565C254.17 223.991 252.971 225.145 251.494 225.145H242.804" stroke="#5ADCD4" stroke-width="5.15358" stroke-miterlimit="10"/>
<path d="M239.076 225.27L243.254 221.234V228.982L239.076 225.27Z" fill="#5ADCD4"/>
<path d="M241.126 221.234V216.306C241.126 214.88 242.325 213.727 243.801 213.727C285.241 217.793 322.773 218.203 355.071 213.727" stroke="#5ADCD4" stroke-width="5.15358" stroke-miterlimit="10"/>
<path d="M359 213.068L354.139 219.531L352.379 208.818L359 213.068Z" fill="#5ADCD4"/>
</g>
<g clip-path="url(#clip5_486_8579)">
<path d="M149.5 265.698V292.243C149.5 292.915 148.92 293.5 148.175 293.5H110.825C110.08 293.5 109.5 292.915 109.5 292.243V265.757C109.5 265.085 110.08 264.5 110.825 264.5H148.175C148.896 264.5 149.47 265.057 149.5 265.698Z" fill="#F4F9F8" stroke="#DC2A8A"/>
<path d="M150 265.687C149.937 265.852 149.837 266.009 149.693 266.148L130.255 284.852C129.749 285.339 128.917 285.339 128.411 284.852L109 266.174V265.757C109 264.791 109.822 264 110.825 264H148.175C149.151 264 149.964 264.757 150 265.687Z" fill="#DC2A8A"/>
</g>
<path d="M160.153 294V283.682H162.827C165.991 283.682 167.797 285.446 167.797 288.806C167.797 292.152 165.991 294 162.911 294H160.153ZM161.777 292.67H162.715C164.927 292.67 166.117 291.368 166.117 288.806C166.117 286.23 164.927 285.012 162.715 285.012H161.777V292.67ZM169.942 294V283.682H171.804L173.694 288.904C173.932 289.59 174.142 290.29 174.38 290.976H174.45C174.688 290.29 174.884 289.59 175.122 288.904L176.984 283.682H178.86V294H177.348V288.904C177.348 287.98 177.474 286.65 177.558 285.712H177.502L176.676 288.092L174.884 293.006H173.876L172.07 288.092L171.258 285.712H171.202C171.272 286.65 171.398 287.98 171.398 288.904V294H169.942Z" fill="#DC2A8A"/>
<defs>
<linearGradient id="paint0_linear_486_8579" x1="47.2899" y1="362.961" x2="47.2899" y2="429.233" gradientUnits="userSpaceOnUse">
<stop stop-color="#58DCD4"/>
<stop offset="0.35" stop-color="#87DFE4" stop-opacity="0.73"/>
<stop offset="0.79" stop-color="#BFE3F7" stop-opacity="0.42"/>
<stop offset="1" stop-color="#D5E5FF" stop-opacity="0.3"/>
</linearGradient>
<linearGradient id="paint1_linear_486_8579" x1="31.1846" y1="357.353" x2="-4.08961" y2="421.853" gradientUnits="userSpaceOnUse">
<stop stop-color="#58DCD4"/>
<stop offset="0.35" stop-color="#87DFE4" stop-opacity="0.73"/>
<stop offset="0.79" stop-color="#BFE3F7" stop-opacity="0.42"/>
<stop offset="1" stop-color="#D5E5FF" stop-opacity="0.3"/>
</linearGradient>
<clipPath id="clip0_486_8579">
<rect width="58" height="96.9642" fill="white" transform="translate(0 320)"/>
</clipPath>
<clipPath id="clip1_486_8579">
<rect width="35" height="44" fill="white" transform="translate(438 150)"/>
</clipPath>
<clipPath id="clip2_486_8579">
<rect width="45" height="42" fill="white" transform="translate(147 324)"/>
</clipPath>
<clipPath id="clip3_486_8579">
<rect width="42" height="34" fill="white" transform="translate(398 97)"/>
</clipPath>
<clipPath id="clip4_486_8579">
<rect width="120" height="36.3636" fill="white" transform="translate(239 208.818)"/>
</clipPath>
<clipPath id="clip5_486_8579">
<rect width="41" height="30" fill="white" transform="translate(109 264)"/>
</clipPath>
</defs>
</svg>
