<svg width="98" height="51" viewBox="0 0 98 51" fill="none" xmlns="http://www.w3.org/2000/svg">
<g clip-path="url(#clip0_0_1)">
<path d="M34.9307 0H4.06931C1.8218 0 0 1.81631 0 4.05732V26.5028C0 28.7438 1.8218 30.5601 4.06931 30.5601H8.5271V35.9992L13.982 30.5601H34.9307C37.1782 30.5601 39 28.7438 39 26.5028V4.05732C39 1.81631 37.1782 0 34.9307 0Z" fill="#E33B57"/>
<path d="M14.8836 7.65039C17.0461 7.65039 18.8582 9.0617 19.5 11.0037C20.1418 9.0617 21.9539 7.65039 24.1164 7.65039C26.8123 7.65039 28.9983 9.82979 28.9983 12.5185C28.9983 20.7728 19.5 24.794 19.5 24.794C19.5 24.794 10.0017 20.7728 10.0017 12.5185C10.0017 9.82979 12.1877 7.65039 14.8836 7.65039Z" fill="white"/>
</g>
<g clip-path="url(#clip1_0_1)">
<path d="M94.7654 21H70.2346C68.4481 21 67 22.5136 67 24.3811V43.0857C67 44.9532 68.4481 46.4668 70.2346 46.4668H73.778V50.9993L78.1139 46.4668H94.7654C96.5519 46.4668 98 44.9532 98 43.0857V24.3811C98 22.5136 96.5519 21 94.7654 21Z" fill="#E33B57"/>
<path d="M78.8304 27.3755C80.5494 27.3755 81.9897 28.5516 82.4999 30.1699C83.01 28.5516 84.4504 27.3755 86.1693 27.3755C88.3122 27.3755 90.0498 29.1917 90.0498 31.4323C90.0498 38.3108 82.4999 41.6618 82.4999 41.6618C82.4999 41.6618 74.95 38.3108 74.95 31.4323C74.95 29.1917 76.6875 27.3755 78.8304 27.3755Z" fill="white"/>
</g>
<defs>
<clipPath id="clip0_0_1">
<rect width="39" height="36" fill="white"/>
</clipPath>
<clipPath id="clip1_0_1">
<rect width="31" height="30" fill="white" transform="translate(67 21)"/>
</clipPath>
</defs>
</svg>
